<svg preserveAspectRatio="none" width="100%" height="100%" overflow="visible" style="display: block;" viewBox="0 0 11.7014 12.1552" fill="none" xmlns="http://www.w3.org/2000/svg">
<path id="Vector" d="M6.37507 0.213139C6.2216 0.0586065 6.01129 -0.0157979 5.80382 0.00280317C5.79529 0.00280317 5.78819 0.00423409 5.77966 0.00566494C5.61198 0.0199735 5.44999 0.0915161 5.32778 0.213139L0.207825 5.3685C-0.069275 5.64751 -0.069275 6.10109 0.207825 6.38011C0.484925 6.65913 0.935389 6.65913 1.21249 6.38011L4.66984 2.89885C4.84321 2.72428 5.1402 2.84734 5.1402 3.09487V11.4093C5.1402 11.7827 5.41162 12.1161 5.78108 12.1519C6.20455 12.192 6.56123 11.8586 6.56123 11.4393V3.09344C6.56123 2.84591 6.85822 2.72285 7.03159 2.89742L10.4889 6.37868C10.766 6.65769 11.2165 6.65769 11.4936 6.37868C11.7707 6.09966 11.7707 5.64608 11.4936 5.36707L6.37365 0.211707L6.37507 0.213139Z" fill="#252024"/>
</svg>
