<svg preserveAspectRatio="none" width="100%" height="100%" overflow="visible" style="display: block;" viewBox="0 0 18 17.9982" fill="none" xmlns="http://www.w3.org/2000/svg">
<path id="Vector" d="M17.5301 8.54627H16.3498C16.0479 8.54627 15.7922 8.32417 15.7496 8.02591C15.3208 5.04337 12.9564 2.67909 9.97459 2.2512C9.67541 2.20859 9.4542 1.95294 9.4542 1.65106V0.469831C9.4542 0.252259 9.30824 0.0519122 9.09429 0.0093044C8.80327 -0.0487147 8.54761 0.172483 8.54761 0.453513V1.65106C8.54761 1.95294 8.32549 2.20859 8.02722 2.2512C5.04453 2.68 2.68013 5.04428 2.25222 8.02591C2.20961 8.32507 1.95395 8.54627 1.65205 8.54627H0.469855C0.252272 8.54627 0.0519148 8.69223 0.00930487 8.90617C-0.0487172 9.19717 0.172492 9.45282 0.453536 9.45282H1.65115C1.95304 9.45282 2.2087 9.67492 2.25131 9.97318C2.68013 12.9557 5.04453 15.32 8.02632 15.7479C8.32549 15.7905 8.5467 16.0461 8.5467 16.348V17.5284C8.5467 17.7459 8.69266 17.9463 8.90662 17.9889C9.19764 18.0469 9.4533 17.8257 9.4533 17.5447V16.3471C9.4533 16.0452 9.67541 15.7896 9.97368 15.747C12.9564 15.3182 15.3208 12.9539 15.7487 9.97227C15.7913 9.67311 16.047 9.45191 16.3489 9.45191H17.5465C17.8275 9.45191 18.0487 9.19627 17.9907 8.90526C17.9481 8.69132 17.7477 8.54536 17.5301 8.54536V8.54627ZM9.38621 14.9003C5.82148 15.1278 2.87052 12.177 3.09807 8.61245C3.28664 5.66617 5.66645 3.28557 8.61288 3.09792C12.1776 2.87037 15.1286 5.82119 14.901 9.38574C14.7124 12.332 12.3326 14.7126 9.38621 14.9003Z" fill="#0D0C0D"/>
</svg>
