<svg preserveAspectRatio="none" width="100%" height="100%" overflow="visible" style="display: block;" viewBox="0 0 18.9844 22" fill="none" xmlns="http://www.w3.org/2000/svg">
<path id="Vector" d="M17.5838 15.2763H17.024C16.8149 15.2763 16.6457 15.1071 16.6457 14.8981C16.6457 13.6903 16.6457 10.008 16.6457 10.008C16.6457 6.87724 14.625 4.21143 11.8203 3.24442C11.7171 3.20866 11.647 3.11375 11.647 3.00508V2.15499C11.647 1.55938 11.4049 1.02154 11.0156 0.630886C10.5933 0.209969 9.99907 -0.0390052 9.34568 0.00501226C8.20398 0.0806673 7.33463 1.06969 7.33463 2.21414V3.00508C7.33463 3.11375 7.26448 3.20866 7.16269 3.24442C4.35795 4.21281 2.3359 6.87862 2.3359 10.008C2.3359 10.008 2.3359 13.6903 2.3359 14.8981C2.3359 15.1071 2.16671 15.2763 1.95762 15.2763H1.39778C0.619216 15.2763 -0.0135354 15.9173 0.000220109 16.7028C0.0139756 17.4882 0.675613 18.0783 1.44592 18.0783H5.20804C5.40749 18.0783 5.56843 18.2324 5.58631 18.4318C5.67022 19.3727 6.08839 20.2187 6.72114 20.85C7.43092 21.5598 8.41169 22 9.49287 22C11.5356 22 13.2178 20.4291 13.398 18.4318C13.4159 18.2338 13.5769 18.0783 13.7763 18.0783H17.5384C18.3101 18.0783 18.9718 17.4745 18.9841 16.7028C18.9979 15.9173 18.3651 15.2763 17.5838 15.2763ZM12.1518 18.7867C11.8382 19.9614 10.7652 20.8308 9.49287 20.8308C8.22049 20.8308 7.14618 19.9614 6.83256 18.7867C6.73765 18.4291 7.00863 18.0783 7.37865 18.0783H11.6057C11.9757 18.0783 12.2467 18.4291 12.1518 18.7867ZM15.4765 14.7137C15.4765 15.0246 15.2248 15.2763 14.9139 15.2763H4.07046C3.75959 15.2763 3.50786 15.0246 3.50786 14.7137C3.50786 13.3561 3.50649 10.008 3.50649 10.008C3.50649 7.46735 5.09799 5.29261 7.33601 4.42464C8.00452 4.16604 8.73219 4.02298 9.49287 4.02298C10.2535 4.02298 10.9798 4.16604 11.6483 4.42464C13.8864 5.29261 15.4779 7.46735 15.4779 10.008C15.4779 10.008 15.4765 13.3561 15.4765 14.7137Z" fill="#67765B"/>
</svg>
