<svg preserveAspectRatio="none" width="100%" height="100%" overflow="visible" style="display: block;" viewBox="0 0 59.8111 58.9687" fill="none" xmlns="http://www.w3.org/2000/svg">
<g id="Group">
<path id="Vector" d="M29.9056 3.60059C44.3813 3.60059 56.1591 15.2125 56.1591 29.4844C56.1591 43.7562 44.3813 55.3681 29.9056 55.3681C15.4298 55.3681 3.65203 43.7562 3.65203 29.4844C3.65203 15.2125 15.4298 3.60059 29.9056 3.60059ZM29.9056 0C13.3893 0 0 13.2007 0 29.4844C0 45.768 13.3893 58.9687 29.9056 58.9687C46.4219 58.9687 59.8111 45.768 59.8111 29.4844C59.8111 13.2007 46.4219 0 29.9056 0Z" fill="#BFA98F"/>
<path id="Vector_2" d="M41.026 33.274C46.1388 30.9471 49.3024 25.7938 49.0285 20.2578L48.8961 17.5304C48.8505 16.5492 48.0288 15.7751 47.029 15.7706L38.5015 15.7526C36.3468 15.7526 34.4067 17.0353 33.5987 19.0021L30.7547 25.9153C30.4442 26.6714 29.3532 26.6714 29.0428 25.9153L26.1988 19.0021C25.3862 17.0353 23.4552 15.7526 21.2959 15.7526H12.773C11.7732 15.7526 10.9515 16.5267 10.9013 17.5124L10.7689 20.2578C10.4996 25.7938 13.6632 30.9471 18.7714 33.274L20.1546 33.8996C20.7024 34.1471 20.707 34.9213 20.1546 35.1688C17.7443 36.231 16.0689 38.6119 16.0689 41.3843C16.0689 45.1514 19.164 48.2029 22.985 48.2029C25.2127 48.2029 27.1939 47.1633 28.4584 45.552C29.198 44.6069 30.5994 44.6069 31.339 45.552C32.6035 47.1633 34.5847 48.2029 36.8125 48.2029C40.6334 48.2029 43.7285 45.1514 43.7285 41.3843C43.7285 38.6119 42.0486 36.231 39.6382 35.1688C39.0859 34.9258 39.0859 34.1516 39.6382 33.8996L41.0214 33.274H41.026ZM41.5236 19.1642C43.1853 19.1642 44.5274 20.4964 44.5274 22.1301C44.5274 23.7639 43.1853 25.0961 41.5236 25.0961C39.8619 25.0961 38.5152 23.7639 38.5152 22.1301C38.5152 20.4964 39.8573 19.1642 41.5236 19.1642ZM18.283 25.0961C16.6213 25.0961 15.2746 23.7639 15.2746 22.1301C15.2746 20.4964 16.6259 19.1642 18.283 19.1642C19.9401 19.1642 21.2913 20.4964 21.2913 22.1301C21.2913 23.7639 19.9401 25.0961 18.283 25.0961Z" fill="#BFA98F"/>
</g>
</svg>
