<svg preserveAspectRatio="none" width="100%" height="100%" overflow="visible" style="display: block;" viewBox="0 0 9.75362 13.75" fill="none" xmlns="http://www.w3.org/2000/svg">
<path id="Vector" d="M9.75193 4.87439C9.75193 2.18265 7.56928 0 4.87754 0C2.1858 0 0.00242266 2.18265 0.00242266 4.87439C0.00242266 4.87439 -0.247416 9.1231 4.32717 13.5289C4.63349 13.8237 5.12013 13.8237 5.42646 13.5289C10.001 9.1231 9.7512 4.87439 9.7512 4.87439H9.75193ZM5.14258 0.779207C7.18619 0.908109 8.84816 2.57298 8.97272 4.61658C9.11828 7.00128 7.22819 8.97971 4.87681 8.97971C2.52543 8.97971 0.773664 7.14177 0.773664 4.87439C0.773664 2.60701 2.75644 0.62858 5.14258 0.779207Z" fill="#0D0C0D"/>
</svg>
