<svg preserveAspectRatio="none" width="100%" height="100%" overflow="visible" style="display: block;" viewBox="0 0 82.979 82.9854" fill="none" xmlns="http://www.w3.org/2000/svg">
<g id="Group">
<path id="Vector" d="M41.4863 0C18.5707 0 0 18.577 0 41.4927C0 64.4083 18.5707 82.9853 41.4863 82.9853C64.402 82.9853 82.979 64.4083 82.979 41.4927C82.979 18.577 64.402 0 41.4863 0ZM48.6309 77.2026C48.2635 77.3609 47.8771 77.4686 47.4718 77.5383C44.9003 77.9626 42.2337 78.1147 39.5102 77.9626C36.546 77.8043 33.6324 77.2216 30.8329 76.2842C30.8012 76.2842 30.7696 76.2652 30.7379 76.2525C19.7868 72.5409 10.5774 63.3443 6.8785 52.3868C6.87216 52.3741 6.87216 52.3678 6.86583 52.3551C5.96643 49.6886 5.39639 46.9207 5.20638 44.0959C3.74327 22.2759 21.6109 4.1613 43.3421 5.21271C61.3301 6.08044 76.0182 20.2618 77.798 38.1801C77.8106 38.2688 77.817 38.3574 77.8233 38.4461C77.8613 38.8578 77.855 39.2632 77.798 39.6559C77.8296 40.2956 77.8486 40.9416 77.8486 41.594C77.8486 59.2146 65.2887 73.909 48.6309 77.2026Z" fill="var(--fill-0, #9B856B)"/>
<g id="Group_2">
<path id="Vector_2" d="M68.7787 43.6968L49.9673 24.4674C48.4472 22.9093 46.4014 21.9656 44.2289 21.8136C41.081 21.5982 36.66 21.3005 35.2602 21.2435C33.0117 21.1549 30.6682 16.2842 25.9875 16.5565C21.2942 16.8226 21.7122 23.6694 21.7122 23.6694C18.843 23.397 16.1448 25.0818 15.1314 27.78L14.8907 28.4134C13.4276 32.3087 15.3214 36.66 19.1661 38.2498L38.2941 46.1227C43.2345 48.1622 48.8335 47.8075 53.4825 45.1663L57.6692 42.7848C57.9162 42.6454 58.1886 42.5758 58.4672 42.5758C58.8789 42.5758 59.297 42.7404 59.601 43.0444C60.342 43.7918 60.1774 45.0396 59.2716 45.5653L44.2922 54.2806C41.67 55.807 42.7531 59.8163 45.787 59.8163H62.9262C64.2373 59.8163 64.896 58.2329 63.965 57.3018L60.9501 54.2869L68.1643 49.5429C70.1784 48.2255 70.4761 45.407 68.7977 43.6842L68.7787 43.6968ZM32.0743 35.2159C29.8132 35.2159 27.9764 33.3791 27.9764 31.1179C27.9764 28.8568 29.8132 27.02 32.0743 27.02C34.3355 27.02 36.1723 28.8504 36.1723 31.1179C36.1723 33.3854 34.3418 35.2159 32.0743 35.2159Z" fill="var(--fill-0, #9B856B)"/>
<path id="Vector_3" d="M36.9197 49.9356L30.5795 47.5288C29.9398 47.2881 29.4648 46.7814 29.1671 46.1733C28.7554 45.3373 27.9764 44.6786 26.925 44.4696C25.7279 44.2352 24.4611 44.7546 23.7771 45.7616C22.6116 47.4781 23.3527 49.7203 25.1578 50.4677C25.9052 50.778 26.7033 50.7717 27.4127 50.512C28.0524 50.2776 28.7427 50.2333 29.3825 50.4803L29.6231 50.569C31.3649 51.234 31.3776 53.6979 29.6421 54.3819L28.0144 55.0217C27.362 55.275 26.6463 55.2053 26.0192 54.9076C24.9868 54.4199 23.7201 54.4326 22.6243 55.123C21.4399 55.8577 20.7938 57.2892 21.0282 58.6636C21.4209 60.9691 23.7707 62.2042 25.8165 61.3998C26.7476 61.0324 27.4317 60.3167 27.7863 59.4616C28.0714 58.7776 28.5907 58.2139 29.2811 57.9415L30.8139 57.3398C32.5494 56.6558 34.2151 58.4609 33.3981 60.1394L33.2841 60.3674C32.9864 60.9754 32.4544 61.4188 31.8336 61.6785C30.9596 62.0458 30.2502 62.8059 29.9968 63.8636C29.7118 65.0544 30.1805 66.3465 31.1686 67.0685C32.8407 68.3036 35.1082 67.6449 35.9253 65.8651C36.2546 65.143 36.2863 64.3577 36.0646 63.6546C35.8619 62.9959 35.8873 62.2865 36.185 61.6658L39.1555 55.522C40.2006 53.3685 39.1682 50.778 36.926 49.9293L36.9197 49.9356Z" fill="var(--fill-0, #9B856B)"/>
</g>
</g>
</svg>
