<svg preserveAspectRatio="none" width="100%" height="100%" overflow="visible" style="display: block;" viewBox="0 0 13.75 9.79941" fill="none" xmlns="http://www.w3.org/2000/svg">
<g id="Layer 1">
<path id="Vector" d="M13.3894 5.6719H13.3901L13.37 5.63857C13.352 5.60807 13.3332 5.57758 13.3145 5.54779L10.2988 0.653685C10.2758 0.611134 10.2513 0.57071 10.2239 0.531705L10.2217 0.528159H10.221C10.0027 0.218953 9.64394 0.0125794 9.23546 0.000523196C8.53017 -0.0200433 7.95311 0.568583 7.95311 1.26217V1.81604C7.95311 2.01036 7.79317 2.1678 7.59578 2.1678H6.15493C5.95754 2.1678 5.7976 2.01036 5.7976 1.81604V1.26217C5.7976 0.569292 5.22054 -0.0193341 4.51525 0.000523196C4.10677 0.0118702 3.748 0.218244 3.52971 0.52745H3.52899L3.52683 0.530996C3.49945 0.570001 3.47424 0.610425 3.4519 0.652976L0.436211 5.54779C0.416759 5.57758 0.398749 5.60807 0.380018 5.63857L0.359846 5.67119H0.361287C0.0947301 6.13784 -0.0399891 6.68604 0.0104406 7.26828C0.125708 8.59588 1.21139 9.66959 2.5593 9.78803C3.88704 9.90504 5.04836 9.10792 5.46693 7.9647C5.51736 7.82783 5.6528 7.73847 5.8012 7.73847H7.94951C8.09791 7.73847 8.23335 7.82783 8.28378 7.9647C8.70235 9.10792 9.86295 9.90504 11.1914 9.78803C12.5393 9.66959 13.6243 8.59588 13.7395 7.26828C13.79 6.68604 13.656 6.13784 13.3894 5.6719ZM2.81649 9.13486C1.63427 9.13486 0.675391 8.19094 0.675391 7.02716C0.675391 5.86338 1.63427 4.91945 2.81649 4.91945C3.9987 4.91945 4.95831 5.86267 4.95831 7.02716C4.95831 8.19164 3.99942 9.13486 2.81649 9.13486ZM10.9342 9.13486C9.75201 9.13486 8.79312 8.19094 8.79312 7.02716C8.79312 5.86338 9.75201 4.91945 10.9342 4.91945C12.1164 4.91945 13.0753 5.86267 13.0753 7.02716C13.0753 8.19164 12.1172 9.13486 10.9342 9.13486Z" fill="var(--fill-0, #0D0C0D)"/>
</g>
</svg>
