<svg preserveAspectRatio="none" width="100%" height="100%" overflow="visible" style="display: block;" viewBox="0 0 20 20.9175" fill="none" xmlns="http://www.w3.org/2000/svg">
<path id="Vector" d="M18.9743 9.47456H11.7151C11.3112 9.47456 10.9843 9.14763 10.9843 8.74368V1.02577C10.9843 0.48659 10.5683 0.0175927 10.0309 0.00047597C9.49339 -0.0166407 9.01584 0.430105 9.01584 0.984685V8.74368C9.01584 9.14763 8.68891 9.47456 8.28495 9.47456H1.02577C0.48659 9.47456 0.0175927 9.8905 0.000475969 10.428C-0.0166407 10.9654 0.430105 11.443 0.984685 11.443H8.28495C8.68891 11.443 9.01584 11.7699 9.01584 12.1739V19.8918C9.01584 20.431 9.43177 20.9 9.96923 20.9171C10.5067 20.9342 10.9843 20.4874 10.9843 19.9329V12.1739C10.9843 11.7699 11.3112 11.443 11.7151 11.443H19.0154C19.5683 11.443 20.015 10.986 19.9996 10.428C19.9842 9.86996 19.5135 9.47456 18.9743 9.47456Z" fill="var(--fill-0, #0D0C0D)"/>
</svg>
