<svg preserveAspectRatio="none" width="100%" height="100%" overflow="visible" style="display: block;" viewBox="0 0 12.5 13.0735" fill="none" xmlns="http://www.w3.org/2000/svg">
<path id="Vector" d="M11.859 5.9216H7.32196C7.06949 5.9216 6.86516 5.71727 6.86516 5.4648V0.641103C6.86516 0.304119 6.6052 0.0109954 6.26928 0.000297481C5.93337 -0.0104004 5.6349 0.268815 5.6349 0.615428V5.4648C5.6349 5.71727 5.43057 5.9216 5.1781 5.9216H0.641103C0.304118 5.9216 0.0109954 6.18156 0.000297481 6.51748C-0.0104004 6.85339 0.268816 7.15186 0.615428 7.15186H5.1781C5.43057 7.15186 5.6349 7.35619 5.6349 7.60866V12.4324C5.6349 12.7693 5.89486 13.0625 6.23077 13.0732C6.56669 13.0839 6.86516 12.8047 6.86516 12.458V7.60866C6.86516 7.35619 7.06949 7.15186 7.32196 7.15186H11.8846C12.2302 7.15186 12.5094 6.86623 12.4998 6.51748C12.4901 6.16872 12.1959 5.9216 11.859 5.9216Z" fill="var(--fill-0, #0D0C0D)"/>
</svg>
