<svg preserveAspectRatio="none" width="100%" height="100%" overflow="visible" style="display: block;" viewBox="0 0 8.77607 9.11637" fill="none" xmlns="http://www.w3.org/2000/svg">
<path id="Vector" d="M4.7813 0.159854C4.6662 0.0439549 4.50847 -0.0118484 4.35286 0.00210238C4.34647 0.00210238 4.34114 0.00317557 4.33475 0.0042487C4.20899 0.0149801 4.08749 0.0686371 3.99583 0.159854L0.155869 4.02637C-0.0519562 4.23563 -0.0519562 4.57582 0.155869 4.78508C0.363693 4.99434 0.701542 4.99434 0.909367 4.78508L3.50238 2.17414C3.63241 2.04321 3.85515 2.1355 3.85515 2.32116V8.55696C3.85515 8.83705 4.05871 9.08709 4.33581 9.11392C4.65341 9.14397 4.92092 8.89393 4.92092 8.5795V2.32008C4.92092 2.13443 5.14367 2.04214 5.27369 2.17306L7.8667 4.78401C8.07453 4.99327 8.41238 4.99327 8.6202 4.78401C8.82803 4.57475 8.82803 4.23456 8.6202 4.0253L4.78024 0.158781L4.7813 0.159854Z" fill="var(--fill-0, black)"/>
</svg>
