<svg preserveAspectRatio="none" width="100%" height="100%" overflow="visible" style="display: block;" viewBox="0 0 13.7507 13.7507" fill="none" xmlns="http://www.w3.org/2000/svg">
<g id="Layer 1">
<path id="Vector" d="M13.1517 5.35209L12.3129 5.10003C12.15 5.05077 12.0181 4.93198 11.9529 4.7748L11.9508 4.76973C11.8856 4.61255 11.8943 4.43436 11.9754 4.28443L12.3904 3.51301C12.5665 3.18634 12.5071 2.78289 12.2449 2.51995L11.2308 1.50589C10.9686 1.24368 10.5651 1.18428 10.2377 1.3603L9.46052 1.77896C9.31203 1.85864 9.13674 1.86443 8.98101 1.79997C8.97956 1.79997 8.97739 1.79852 8.97594 1.79779C8.82094 1.73333 8.7007 1.60512 8.65217 1.44432L8.39793 0.599023C8.29145 0.243376 7.96405 0 7.59247 0H6.15829C5.78743 0 5.46003 0.243376 5.35283 0.599023L5.09859 1.44432C5.05006 1.60512 4.93055 1.73405 4.77481 1.79779C4.77337 1.79779 4.77119 1.79924 4.76974 1.79997C4.61401 1.86443 4.43872 1.85864 4.29024 1.77896L3.51303 1.3603C3.18635 1.18428 2.7829 1.24368 2.51997 1.50589L1.5059 2.51995C1.24369 2.78216 1.1843 3.18561 1.36031 3.51301L1.77898 4.29022C1.85865 4.43871 1.86445 4.614 1.79998 4.76973C1.79998 4.77118 1.79853 4.77335 1.79781 4.7748C1.73334 4.92981 1.60514 5.05005 1.44433 5.09858L0.599038 5.35282C0.243391 5.45929 1.52581e-05 5.78669 1.52581e-05 6.15828V7.59245C1.52581e-05 7.96331 0.243391 8.29071 0.599038 8.39791L1.44433 8.65215C1.60514 8.70068 1.73407 8.8202 1.79781 8.97593C1.79781 8.97738 1.79926 8.97955 1.79998 8.981C1.86445 9.13673 1.85865 9.31202 1.77898 9.46051L1.36031 10.2377C1.1843 10.5644 1.24369 10.9678 1.5059 11.2308L2.51997 12.2448C2.78218 12.5071 3.18563 12.5664 3.51303 12.3904L4.29024 11.9718C4.43872 11.8921 4.61401 11.8863 4.76974 11.9508C4.77119 11.9508 4.77337 11.9522 4.77481 11.9529C4.92982 12.0174 5.05006 12.1456 5.09859 12.3064L5.35283 13.1517C5.45931 13.5074 5.78671 13.7507 6.15829 13.7507H7.59247C7.96333 13.7507 8.29072 13.5074 8.39793 13.1517L8.65217 12.3064C8.7007 12.1456 8.82021 12.0174 8.97594 11.9529C8.97739 11.9529 8.97956 11.9515 8.98101 11.9508C9.13674 11.8863 9.31203 11.8921 9.46052 11.9718L10.2377 12.3904C10.5644 12.5664 10.9679 12.5071 11.2308 12.2448L12.2449 11.2308C12.5071 10.9686 12.5665 10.5651 12.3904 10.2377L11.9718 9.46051C11.8921 9.31202 11.8863 9.13673 11.9508 8.981C11.9508 8.97955 11.9522 8.97738 11.9529 8.97593C12.0174 8.82092 12.1456 8.70068 12.3064 8.65215L13.1517 8.39791C13.5074 8.29143 13.7507 7.96404 13.7507 7.59245V6.15828C13.7507 5.78742 13.5074 5.46002 13.1517 5.35282V5.35209ZM7.19698 11.7776C4.23519 11.9667 1.78332 9.51483 1.97237 6.55304C2.12883 4.10479 4.10626 2.12736 6.5545 1.97091C9.51629 1.78186 11.9682 4.23372 11.7791 7.19552C11.6227 9.64376 9.64523 11.6212 7.19698 11.7776Z" fill="var(--fill-0, #0D0C0D)"/>
</g>
</svg>
