<svg preserveAspectRatio="none" width="100%" height="100%" overflow="visible" style="display: block;" viewBox="0 0 16.9973 16.9973" fill="none" xmlns="http://www.w3.org/2000/svg">
<path id="Vector" d="M8.89762 0.00923283C3.89733 -0.221325 -0.22134 3.89708 0.00923345 8.89702C0.20929 13.2562 3.74023 16.7869 8.09965 16.988C13.0999 17.2186 17.2186 13.1002 16.988 8.10024C16.788 3.74111 13.257 0.210406 8.89762 0.00923283ZM15.7176 7.98948H12.3268C12.1336 7.98948 11.9776 7.83578 11.9697 7.64365C11.8815 5.46578 11.4565 3.30712 10.723 1.84127C10.6145 1.62427 10.8225 1.38241 11.0508 1.46491C13.6978 2.42783 15.6509 4.84643 15.9414 7.74649C15.955 7.87646 15.8499 7.98835 15.7188 7.98835L15.7176 7.98948ZM8.49863 15.9788C7.41358 15.9788 6.20985 13.2121 6.04709 9.38187C6.03805 9.17731 6.20081 9.00552 6.40539 9.00552H10.593C10.7976 9.00552 10.9592 9.17731 10.9513 9.38187C10.7874 13.2121 9.58369 15.9788 8.49976 15.9788H8.49863ZM6.40426 7.98948C6.19968 7.98948 6.03805 7.8177 6.04596 7.61313C6.20985 3.78293 7.41358 1.01623 8.4975 1.01623C9.58142 1.01623 10.7863 3.78293 10.949 7.61313C10.9581 7.8177 10.7953 7.98948 10.5908 7.98948H6.40313H6.40426ZM6.27541 1.84127C5.54186 3.30599 5.11689 5.46578 5.02873 7.64365C5.02081 7.83691 4.86484 7.98948 4.67157 7.98948H1.28078C1.14967 7.98948 1.04455 7.8776 1.05812 7.74762C1.34859 4.84643 3.30169 2.42896 5.94876 1.46604C6.17707 1.38354 6.38504 1.6254 6.27654 1.8424L6.27541 1.84127ZM1.27965 9.00665H4.67043C4.86371 9.00665 5.01969 9.16036 5.0276 9.35249C5.11576 11.5304 5.54074 13.689 6.27428 15.1549C6.38278 15.3719 6.17481 15.6137 5.9465 15.5312C3.30169 14.5683 1.34972 12.1542 1.05699 9.25642C1.04342 9.12306 1.14515 9.00665 1.27965 9.00665ZM10.7219 15.1549C11.4554 13.6901 11.8804 11.5304 11.9685 9.35249C11.9765 9.15923 12.1324 9.00665 12.3257 9.00665H15.7165C15.8499 9.00665 15.9527 9.12306 15.9391 9.25642C15.6464 12.1542 13.6945 14.5683 11.0496 15.5312C10.8213 15.6137 10.6134 15.3719 10.7219 15.1549Z" fill="var(--fill-0, #252024)"/>
</svg>
