<svg preserveAspectRatio="none" width="100%" height="100%" overflow="visible" style="display: block;" viewBox="0 0 17.947 18.0655" fill="none" xmlns="http://www.w3.org/2000/svg">
<g id="Group">
<path id="Vector" d="M7.72021 8.27361H0.553397C0.247401 8.27361 0 8.02621 0 7.72021V0.553397C0 0.247401 0.247401 0 0.553397 0H7.72021C8.02621 0 8.27361 0.247401 8.27361 0.553397V7.72021C8.27361 8.02621 8.02621 8.27361 7.72021 8.27361ZM1.42451 7.16681H6.8478C7.02358 7.16681 7.16551 7.02488 7.16551 6.8491V1.42451C7.16551 1.24872 7.02358 1.10679 6.8478 1.10679H1.42451C1.24872 1.10679 1.10679 1.24872 1.10679 1.42451V6.8478C1.10679 7.02358 1.24872 7.16551 1.42451 7.16551V7.16681Z" fill="var(--fill-0, #0D0C0D)"/>
<path id="Vector_2" d="M17.3936 8.27362H10.2268C9.92082 8.27362 9.67342 8.02622 9.67342 7.72022V0.553411C9.67342 0.247415 9.92082 1.4355e-05 10.2268 1.4355e-05H17.3936C17.6996 1.4355e-05 17.947 0.247415 17.947 0.553411V7.72022C17.947 8.02622 17.6996 8.27362 17.3936 8.27362ZM11.0992 7.16683H16.5225C16.6983 7.16683 16.8402 7.0249 16.8402 6.84911V1.42452C16.8402 1.24874 16.6983 1.10681 16.5225 1.10681H11.0992C10.9234 1.10681 10.7815 1.24874 10.7815 1.42452V6.84781C10.7815 7.0236 10.9234 7.16553 11.0992 7.16553V7.16683Z" fill="var(--fill-0, #0D0C0D)"/>
<path id="Vector_3" d="M7.72023 18.0655H0.553416C0.24742 18.0655 1.95309e-05 17.8181 1.95309e-05 17.5121V10.3453C1.95309e-05 10.0393 0.24742 9.79188 0.553416 9.79188H7.72023C8.02623 9.79188 8.27363 10.0393 8.27363 10.3453V17.5121C8.27363 17.8181 8.02623 18.0655 7.72023 18.0655ZM1.42453 16.9587H6.84782C7.0236 16.9587 7.16553 16.8168 7.16553 16.641V11.2177C7.16553 11.0419 7.0236 10.9 6.84782 10.9H1.42453C1.24874 10.9 1.10681 11.0419 1.10681 11.2177V16.641C1.10681 16.8168 1.24874 16.9587 1.42453 16.9587Z" fill="var(--fill-0, #0D0C0D)"/>
<path id="Vector_4" d="M17.3936 18.0655H10.2268C9.92082 18.0655 9.67342 17.8181 9.67342 17.5121V10.3453C9.67342 10.0393 9.92082 9.79188 10.2268 9.79188H17.3936C17.6996 9.79188 17.947 10.0393 17.947 10.3453V17.5121C17.947 17.8181 17.6996 18.0655 17.3936 18.0655ZM11.0992 16.9587H16.5225C16.6983 16.9587 16.8402 16.8168 16.8402 16.641V11.2177C16.8402 11.0419 16.6983 10.9 16.5225 10.9H11.0992C10.9234 10.9 10.7815 11.0419 10.7815 11.2177V16.641C10.7815 16.8168 10.9234 16.9587 11.0992 16.9587Z" fill="var(--fill-0, #0D0C0D)"/>
</g>
</svg>
