<svg preserveAspectRatio="none" width="100%" height="100%" overflow="visible" style="display: block;" viewBox="0 0 15.5897 20.1026" fill="none" xmlns="http://www.w3.org/2000/svg">
<path id="Vector" d="M8.49347 0.283963C8.289 0.0780811 8.0088 -0.0210474 7.73239 0.00373465C7.72104 0.00373465 7.71157 0.00564105 7.70021 0.00754736C7.47681 0.0266105 7.26098 0.121926 7.09817 0.283963L0.276884 7.15242C-0.0922946 7.52415 -0.0922946 8.12845 0.276884 8.50018C0.646062 8.87191 1.24621 8.87191 1.61539 8.50018L6.2216 3.86212C6.45258 3.62955 6.84826 3.79349 6.84826 4.12328V19.1088C6.84826 19.6064 7.20986 20.0505 7.7021 20.0982C8.26628 20.1516 8.74148 19.7074 8.74148 19.1489V4.12137C8.74148 3.79158 9.13717 3.62764 9.36814 3.86021L13.9743 8.49827C14.3435 8.87001 14.9437 8.87001 15.3129 8.49827C15.682 8.12654 15.682 7.52224 15.3129 7.15051L8.49158 0.282056L8.49347 0.283963Z" fill="var(--fill-0, black)"/>
</svg>
