<svg preserveAspectRatio="none" width="100%" height="100%" overflow="visible" style="display: block;" viewBox="0 0 9.74359 12.5641" fill="none" xmlns="http://www.w3.org/2000/svg">
<path id="Vector" d="M5.30842 0.177477C5.18063 0.0488007 5.0055 -0.0131547 4.83275 0.00233415C4.82565 0.00233415 4.81973 0.00352566 4.81263 0.0047171C4.67301 0.0166316 4.53811 0.076204 4.43635 0.177477L0.173052 4.47026C-0.0576841 4.70259 -0.0576841 5.08028 0.173052 5.31261C0.403789 5.54495 0.778884 5.54495 1.00962 5.31261L3.8885 2.41382C4.03286 2.26847 4.28016 2.37093 4.28016 2.57705V11.943C4.28016 12.254 4.50617 12.5316 4.81381 12.5614C5.16643 12.5947 5.46343 12.3171 5.46343 11.968V2.57586C5.46343 2.36974 5.71073 2.26727 5.85509 2.41263L8.73397 5.31142C8.9647 5.54375 9.3398 5.54375 9.57053 5.31142C9.80127 5.07909 9.80127 4.7014 9.57053 4.46907L5.30724 0.176285L5.30842 0.177477Z" fill="var(--fill-0, black)"/>
</svg>
