<svg preserveAspectRatio="none" width="100%" height="100%" overflow="visible" style="display: block;" viewBox="0 0 22.0009 22.108" fill="none" xmlns="http://www.w3.org/2000/svg">
<path id="Vector" d="M14.5822 10.2933C16.0519 9.1265 16.9424 7.26138 16.7461 5.20555C16.4796 2.4289 14.2092 0.217402 11.4284 0.0154644C8.05432 -0.228544 5.22999 2.44713 5.22999 5.77069C5.22999 7.60636 6.09243 9.2457 7.43308 10.3031C7.85799 10.6382 7.73879 11.3072 7.22833 11.4895C3.70003 12.7432 0.980885 15.7049 0.0665561 19.3791C-0.278421 20.7646 0.760717 22.108 2.1883 22.108H19.813C21.2406 22.108 22.2783 20.7646 21.9347 19.3791C21.0204 15.7049 18.3027 12.7432 14.7758 11.4895C14.2583 11.3057 14.1531 10.634 14.5822 10.2933ZM6.63094 5.77069C6.63094 3.36146 8.59141 1.40238 11.0006 1.40238C13.4099 1.40238 15.3704 3.36146 15.3704 5.77069C15.3704 8.17992 13.4099 10.1404 11.0006 10.1404C8.59141 10.1404 6.63094 8.17992 6.63094 5.77069Z" fill="var(--fill-0, #0D0C0D)"/>
</svg>
