<svg preserveAspectRatio="none" width="100%" height="100%" overflow="visible" style="display: block;" viewBox="0 0 22 22.0012" fill="none" xmlns="http://www.w3.org/2000/svg">
<path id="Vector" d="M21.7828 20.7206C21.7828 20.7206 19.238 18.1759 17.7339 16.6717C17.254 16.1918 17.1845 15.4429 17.5596 14.8784C18.6874 13.1848 19.291 11.1124 19.1357 8.89721C18.8086 4.19917 15.0439 0.397789 10.3496 0.0302805C4.72078 -0.41174 0 4.04383 0 9.58045C0 15.1171 4.29644 19.1597 9.58048 19.1597C11.5431 19.1597 13.3705 18.5661 14.891 17.5495C15.4493 17.1756 16.1969 17.259 16.6718 17.7338L20.7194 21.7815C20.8659 21.928 21.0579 22.0012 21.2498 22.0012C21.4418 22.0012 21.6338 21.928 21.7803 21.7815C22.0732 21.4885 22.0732 21.0124 21.7803 20.7194L21.7828 20.7206ZM9.58048 1.44096C14.0676 1.44096 17.7187 5.09205 17.7187 9.58045C17.7187 14.0689 14.0676 17.7187 9.58048 17.7187C5.09334 17.7187 1.44099 14.0689 1.44099 9.58045C1.44099 5.09205 5.09208 1.44096 9.58048 1.44096Z" fill="var(--fill-0, #0D0C0D)"/>
</svg>
