<svg preserveAspectRatio="none" width="100%" height="100%" overflow="visible" style="display: block;" viewBox="0 0 13.75 13.7508" fill="none" xmlns="http://www.w3.org/2000/svg">
<path id="Vector" d="M13.6142 12.9504C13.6142 12.9504 12.0238 11.3599 11.0837 10.4198C10.7837 10.1199 10.7403 9.65182 10.9747 9.29899C11.6796 8.24051 12.0569 6.94523 11.9598 5.56076C11.7554 2.62448 9.40241 0.248618 6.4685 0.0189253C2.95049 -0.257338 0 2.52739 0 5.98778C0 9.44817 2.68528 11.9748 5.9878 11.9748C7.21441 11.9748 8.35656 11.6038 9.3069 10.9684C9.65578 10.7348 10.1231 10.7869 10.4198 11.0836L12.9496 13.6134C13.0412 13.705 13.1612 13.7508 13.2811 13.7508C13.4011 13.7508 13.5211 13.705 13.6127 13.6134C13.7958 13.4303 13.7958 13.1327 13.6127 12.9496L13.6142 12.9504ZM5.9878 0.900599C8.79226 0.900599 11.0742 3.18253 11.0742 5.98778C11.0742 8.79303 8.79226 11.0742 5.9878 11.0742C3.18334 11.0742 0.900617 8.79303 0.900617 5.98778C0.900617 3.18253 3.18255 0.900599 5.9878 0.900599Z" fill="var(--fill-0, #0D0C0D)"/>
</svg>
