<svg preserveAspectRatio="none" width="100%" height="100%" overflow="visible" style="display: block;" viewBox="0 0 17.1873 16.2061" fill="none" xmlns="http://www.w3.org/2000/svg">
<path id="Vector" d="M14.9038 16.2061H2.28351C1.02471 16.2061 0 15.1814 0 13.9226V2.28351C0 1.02471 1.02471 0 2.28351 0H5.50762C5.89452 0 6.20852 0.314 6.20852 0.700894C6.20852 1.08779 5.89452 1.40179 5.50762 1.40179H2.28351C1.79709 1.40179 1.40179 1.79709 1.40179 2.28351V13.9226C1.40179 14.409 1.79709 14.8043 2.28351 14.8043H14.9038C15.3902 14.8043 15.7855 14.409 15.7855 13.9226V2.28351C15.7855 1.79709 15.3902 1.40179 14.9038 1.40179H11.6797C11.2928 1.40179 10.9788 1.08779 10.9788 0.700894C10.9788 0.314 11.2928 0 11.6797 0H14.9038C16.1626 0 17.1873 1.02471 17.1873 2.28351V13.9226C17.1873 15.1814 16.1626 16.2061 14.9038 16.2061Z" fill="var(--fill-0, #252024)"/>
</svg>
