<svg preserveAspectRatio="none" width="100%" height="100%" overflow="visible" style="display: block;" viewBox="0 0 9.37077 16.1492" fill="none" xmlns="http://www.w3.org/2000/svg">
<path id="Vector" d="M9.16436 5.18101C9.02699 5.31698 8.84756 5.38567 8.66813 5.38567C8.4887 5.38567 8.30927 5.31698 8.1733 5.18101L5.85614 2.86385C5.68232 2.69003 5.38514 2.81339 5.38514 3.0587V15.4183C5.38514 15.7841 5.1174 16.1107 4.75294 16.1458C4.3352 16.1864 3.98335 15.8584 3.98335 15.4477V3.0587C3.98335 2.81339 3.68618 2.69003 3.51235 2.86385L1.1966 5.18101C0.92185 5.45435 0.478886 5.45435 0.205537 5.18101C-0.0678111 4.90766 -0.0692129 4.46329 0.205537 4.18994L4.174 0.222884L4.19082 0.206063C4.24269 0.154197 4.30156 0.110741 4.36324 0.0785001C4.38146 0.0686876 4.40249 0.0602769 4.42211 0.0518661C4.48379 0.026634 4.54968 0.00981251 4.61416 0.00420536C4.63799 0.00140179 4.66182 0 4.68565 0C4.70948 0 4.73331 0.00140179 4.75714 0.00420536C4.82303 0.00981251 4.88751 0.026634 4.94919 0.0518661C4.96461 0.0574733 4.98003 0.0644822 4.99404 0.0714912C5.06133 0.105134 5.12581 0.149991 5.18188 0.206063L9.16576 4.18994C9.43911 4.46329 9.43911 4.90626 9.16576 5.18101H9.16436Z" fill="var(--fill-0, #252024)"/>
</svg>
