<svg preserveAspectRatio="none" width="100%" height="100%" overflow="visible" style="display: block;" viewBox="0 0 59.8066 58.9586" fill="none" xmlns="http://www.w3.org/2000/svg">
<g id="Group">
<path id="Vector" d="M47.6727 18.6749C45.3673 15.0434 41.8431 12.1724 37.7711 10.6244C32.22 8.56344 25.7103 8.26195 20.3235 10.9709C14.7679 13.7384 11.1387 19.3139 9.69614 25.1458C8.86074 28.6108 8.60053 32.4358 9.78288 35.9233C12.5493 44.3742 21.2274 50.4447 30.2342 50.1432C42.8201 49.7877 50.0465 41.3952 47.2801 29.1058C45.4678 20.3984 36.3879 14.1389 27.518 16.9694C22.8617 18.3599 19.3466 21.8609 18.8217 26.7523C18.3743 31.1938 20.0405 35.9278 23.5739 38.7537C25.4455 40.2522 27.8422 41.3142 30.4077 41.1702C34.5984 41.0037 38.4285 37.0213 37.7711 32.8228C37.374 30.3028 36.0045 28.2913 34.1237 26.8018C33.2426 26.1358 32.2794 25.6048 31.2203 25.3078C30.5401 25.1233 29.7777 25.2718 29.2162 25.7758C28.3489 26.5498 28.285 27.8728 29.0702 28.7278C29.6271 29.3398 30.2206 29.9248 30.7227 30.5008C31.654 31.5943 33.1285 33.2188 32.2383 34.5688C30.7684 36.7378 28.2576 35.7748 26.6279 34.2448C24.8795 32.5348 24.0167 29.7088 24.2723 27.3643C24.4686 25.4698 25.546 23.8858 27.235 22.9544C31.905 20.3129 37.3374 22.0094 40.291 26.3068C42.6603 29.7763 43.1077 35.4778 41.3729 39.0282C38.885 44.3607 30.887 45.5037 25.7057 43.8297C20.2505 42.1332 15.1057 36.7243 14.7588 30.9508C14.4894 24.8983 17.1417 18.2024 22.5376 14.9444C27.8924 11.7494 36.0912 12.3749 41.3045 15.6194C43.0894 16.7174 44.7054 18.1664 46.0065 19.8224C46.819 20.8979 47.6133 21.9194 48.677 22.8014C48.7455 22.8644 48.8642 22.8284 48.8779 22.7339C49.0605 21.2579 48.4624 19.8764 47.6727 18.6749ZM31.024 28.4128C30.499 28.4128 30.079 27.9943 30.079 27.4813C30.079 26.9683 30.499 26.5498 31.024 26.5498C31.549 26.5498 31.969 26.9638 31.969 27.4813C31.969 27.9988 31.5444 28.4128 31.024 28.4128Z" fill="#D8C9B8"/>
<path id="Vector_2" d="M29.901 0C13.3847 0 0 13.1984 0 29.4793C0 45.7602 13.3847 58.9586 29.901 58.9586C46.4173 58.9586 59.8066 45.7602 59.8066 29.4793C59.8066 13.1984 46.4173 0 29.901 0ZM35.0093 54.7781C34.7445 54.8906 34.466 54.9671 34.1739 55.0166C32.3205 55.3181 30.3986 55.4261 28.4356 55.3181C26.2992 55.2056 24.1993 54.7916 22.1815 54.1256C22.1587 54.1256 22.1359 54.1121 22.113 54.1031C14.2201 51.4662 7.58253 44.9322 4.91655 37.1473C4.91655 37.1383 4.91655 37.1338 4.90742 37.1248C4.25918 35.2303 3.84833 33.2638 3.71138 31.2568C2.65685 15.7544 15.5348 2.88448 31.1975 3.63148C44.1622 4.24797 54.7485 14.3234 56.0313 27.0538C56.0404 27.1168 56.045 27.1798 56.0495 27.2428C56.0769 27.5353 56.0724 27.8233 56.0313 28.1023C56.0541 28.5568 56.0678 29.0158 56.0678 29.4793C56.0678 41.9982 47.0153 52.4382 35.0093 54.7781Z" fill="#D8C9B8"/>
</g>
</svg>
