<svg preserveAspectRatio="none" width="100%" height="100%" overflow="visible" style="display: block;" viewBox="0 0 82.9803 82.9823" fill="none" xmlns="http://www.w3.org/2000/svg">
<g id="Group">
<g id="Group_2">
<path id="Vector" d="M30.7662 6.34514C31.7859 6.03479 32.8183 5.76877 33.8761 5.54075C32.8247 5.7561 31.7859 6.02845 30.7662 6.34514ZM49.1088 5.54708C50.1666 5.7751 51.199 6.04112 52.2251 6.35147C51.2053 6.03478 50.1666 5.76243 49.1088 5.54708ZM54.8789 7.27621C55.0563 7.34588 55.2336 7.41555 55.411 7.49156C55.5123 7.52956 55.6136 7.56756 55.7086 7.60557C55.4363 7.49156 55.1576 7.37755 54.8789 7.27621ZM58.0395 8.68864C58.1028 8.72031 58.1598 8.75198 58.2168 8.78365C58.2802 8.81532 58.3372 8.84699 58.4005 8.87866C58.5462 8.94833 58.6919 9.02433 58.8375 9.10667C58.5715 8.95466 58.3055 8.82165 58.0395 8.68864ZM61.1557 10.4621L61.2697 10.5381C61.4154 10.6268 61.5547 10.7218 61.6941 10.8105C61.5167 10.6838 61.3394 10.5698 61.1557 10.4621ZM62.4541 11.3298C62.4098 11.3045 62.3718 11.2728 62.3338 11.2412C62.1184 11.0955 61.9031 10.9498 61.6877 10.8105L62.1058 11.0955C62.1058 11.0955 62.1628 11.1398 62.1944 11.1588C62.4541 11.3362 62.7138 11.5135 62.9608 11.6972C62.7898 11.5705 62.6251 11.4502 62.4541 11.3298ZM64.4113 12.7866C64.4113 12.7866 64.3733 12.7613 64.3543 12.7423C64.3986 12.7866 64.4493 12.8246 64.4936 12.8626C64.4683 12.8373 64.4366 12.8119 64.4113 12.7866ZM72.6769 22.0909C72.7402 22.1986 72.8099 22.3063 72.8732 22.4203C72.9682 22.5723 73.0632 22.7307 73.1582 22.889C73.0062 22.6167 72.8416 22.3506 72.6769 22.0909ZM72.0308 21.0839C72.2588 21.4132 72.4742 21.7489 72.6832 22.0909C72.6135 21.9833 72.5439 21.8756 72.4742 21.7679C72.3285 21.5336 72.1828 21.3056 72.0308 21.0839ZM70.8781 19.4624C71.1631 19.8425 71.4418 20.2225 71.7078 20.6088C71.5938 20.4505 71.4861 20.2922 71.3721 20.1401C71.2138 19.9121 71.0428 19.6841 70.8781 19.4561V19.4624ZM69.2756 17.4799C69.4593 17.689 69.6303 17.9043 69.8077 18.1133C69.7507 18.0437 69.6937 17.974 69.643 17.9106C69.5226 17.765 69.4023 17.6193 69.2756 17.4799ZM70.1814 18.5567C70.061 18.411 69.9343 18.2653 69.814 18.1197C69.947 18.278 70.08 18.4364 70.2067 18.601C70.441 18.886 70.6627 19.1774 70.8844 19.4688C70.8211 19.3801 70.7577 19.2977 70.6944 19.2091C70.5234 18.9874 70.3524 18.772 70.1814 18.5567ZM68.9146 17.0683C69.0413 17.2013 69.1616 17.3406 69.2756 17.4799C69.2503 17.4483 69.2186 17.4103 69.187 17.3786C69.0983 17.2773 69.0096 17.1696 68.9146 17.0683Z" fill="var(--fill-0, #9B856B)"/>
<path id="Vector_2" d="M82.811 37.7037C81.0502 17.8916 65.089 1.93682 45.2769 0.169693C19.5364 -2.12947 -1.96053 19.2534 0.142287 44.9623C0.148621 45.0699 0.161288 45.1713 0.167622 45.279C0.560317 49.7063 1.6624 53.9373 3.37252 57.8642C4.0249 59.3843 4.76596 60.8601 5.59568 62.2789C5.79203 62.6209 6.00104 62.9629 6.21006 63.2986C10.574 70.3354 16.9965 75.9852 24.6097 79.3928C25.1671 79.6461 25.7371 79.8868 26.3072 80.1085C29.8921 81.5273 33.7241 82.4583 37.708 82.813C63.5562 85.1185 85.1165 63.552 82.811 37.7037ZM78.2189 42.2324C78.2189 42.3971 78.2189 42.5681 78.2063 42.7328C78.2063 42.7454 78.2063 42.7581 78.2063 42.7644C78.2063 42.9671 78.1936 43.1761 78.1809 43.3788C78.1809 43.6132 78.1556 43.8475 78.1366 44.0755C78.1366 44.2466 78.1176 44.4239 78.0986 44.5949C78.0986 44.7343 78.0796 44.8736 78.0606 45.0066C78.0479 45.1206 78.0416 45.2346 78.0289 45.3486C78.0289 45.4563 78.0099 45.5703 77.9909 45.6843C77.9656 45.9313 77.9339 46.1847 77.8959 46.4317C77.8959 46.4444 77.8959 46.4634 77.8959 46.476C77.8959 46.514 77.8832 46.5457 77.8769 46.5837C77.8769 46.5964 77.8769 46.6091 77.8769 46.6217C77.8452 46.8561 77.8136 47.0904 77.7756 47.3248C77.7502 47.5275 77.7122 47.7301 77.6742 47.9328C77.5666 48.5599 77.4399 49.1806 77.2942 49.8013C77.1739 50.3143 77.0409 50.8147 76.9015 51.3151C76.8572 51.4861 76.8065 51.6634 76.7558 51.8408C76.7242 51.9484 76.6925 52.0561 76.6545 52.1638C76.4201 52.9302 76.1668 53.6839 75.8881 54.4313C75.7488 54.805 75.5968 55.1723 75.4511 55.5334C75.2991 55.9007 75.1407 56.2618 74.9824 56.6228C74.824 56.9775 74.6657 57.3195 74.4947 57.6552C74.482 57.6869 74.4693 57.7185 74.4503 57.7502C74.2857 58.0859 74.1146 58.4216 73.9373 58.7446C73.7473 59.093 73.5573 59.4413 73.3609 59.7833C73.1772 60.1064 72.9872 60.4231 72.7909 60.7397C72.7655 60.7841 72.7402 60.8284 72.7085 60.8728C72.5375 61.1514 72.3602 61.4301 72.1765 61.7025C71.5115 62.7096 70.8021 63.6913 70.0357 64.6287C69.795 64.9327 69.5416 65.2304 69.282 65.5281C68.1292 66.8709 66.8688 68.1313 65.526 69.284C65.3487 69.4487 65.1587 69.6007 64.975 69.7591C64.4809 70.1708 63.9742 70.5698 63.4675 70.9435C63.3029 71.0765 63.1319 71.1968 62.9608 71.3172C62.8468 71.3995 62.7265 71.4819 62.6125 71.5642C62.4225 71.7035 62.2261 71.8366 62.0234 71.9696C61.2697 72.4826 60.497 72.964 59.7053 73.4137C59.4899 73.5403 59.2746 73.6607 59.0529 73.781C58.5082 74.0724 57.9635 74.3574 57.4061 74.6234C57.1401 74.7564 56.8677 74.8831 56.5954 75.0034C56.3547 75.1175 56.114 75.2251 55.8733 75.3201C55.0119 75.6875 54.1442 76.0232 53.2575 76.3209C52.6874 76.5172 52.1174 76.7009 51.5347 76.8592C51.2433 76.9416 50.952 77.0239 50.6543 77.0999C50.5973 77.1189 50.5339 77.1379 50.4769 77.1506C50.2426 77.2076 50.0019 77.2646 49.7675 77.3153C49.4825 77.385 49.1975 77.4483 48.9062 77.5053C48.8365 77.518 48.7731 77.5306 48.7098 77.5433C48.4628 77.594 48.2094 77.6446 47.9561 77.689C47.9054 77.689 47.8611 77.708 47.8104 77.708C45.7519 78.069 43.6301 78.259 41.4639 78.259C39.2978 78.259 37.1633 78.069 35.0922 77.708C35.0351 77.7016 34.9845 77.6953 34.9275 77.6826C34.7501 77.651 34.5728 77.6193 34.3954 77.575C34.2181 77.5433 34.0407 77.5053 33.8634 77.4673C33.6924 77.4356 33.5214 77.404 33.3504 77.3596C32.6726 77.2076 32.0013 77.0366 31.3362 76.8402C31.1209 76.7832 30.9055 76.7199 30.6902 76.6439C29.9048 76.4096 29.1447 76.1499 28.3847 75.8585C28.1376 75.7698 27.8906 75.6685 27.6499 75.5672C27.2066 75.3898 26.7632 75.1998 26.3389 75.0034C26.0982 74.8958 25.8511 74.7818 25.6168 74.6614C25.3888 74.5601 25.1544 74.4461 24.9264 74.3321C24.7047 74.2181 24.483 74.104 24.2614 73.9837C22.3232 72.9513 20.4864 71.7605 18.77 70.4114C18.5483 70.2404 18.3329 70.0694 18.1176 69.8921C17.8769 69.6894 17.6426 69.493 17.4082 69.284C17.2055 69.1194 17.0028 68.9357 16.8002 68.752C16.7748 68.7267 16.7495 68.7077 16.7242 68.6823C16.5151 68.4923 16.3061 68.3023 16.0971 68.0996C15.8818 67.8969 15.6727 67.6943 15.4637 67.4789C15.28 67.2952 15.09 67.1052 14.9127 66.9152C14.7797 66.7759 14.6403 66.6365 14.5073 66.4845C14.3363 66.3072 14.1716 66.1235 14.0133 65.9398C13.7789 65.6801 13.5446 65.4141 13.3166 65.1417C10.156 61.3858 7.73017 56.9838 6.2734 52.1575C6.23539 52.0498 6.20373 51.9421 6.17206 51.8344C6.12139 51.6571 6.07072 51.4797 6.02638 51.3087C5.95037 51.0554 5.88704 50.8084 5.8237 50.555C5.74769 50.2763 5.68436 50.004 5.62102 49.7253C5.50068 49.1932 5.393 48.6675 5.29166 48.1228C5.27899 48.0532 5.26632 47.9898 5.25366 47.9202C5.21565 47.7175 5.17765 47.5148 5.15232 47.3121C5.11431 47.0778 5.08264 46.8434 5.05098 46.6091C5.05098 46.5964 5.05098 46.5837 5.05098 46.5711C5.05098 46.5331 5.03831 46.5014 5.03197 46.4634C5.03197 46.4507 5.03197 46.4317 5.03197 46.419C4.99397 46.172 4.9623 45.9187 4.93697 45.6717C4.91797 45.5576 4.9053 45.4436 4.89896 45.336C4.8863 45.222 4.87996 45.1079 4.8673 44.9939C4.84829 44.8609 4.83563 44.7216 4.82929 44.5822C4.81029 44.4112 4.79762 44.2339 4.79129 44.0629C4.77229 43.8349 4.75329 43.6005 4.74695 43.3662C4.74695 43.3472 4.74695 43.3218 4.74695 43.3028C4.74695 43.1191 4.72795 42.9418 4.72795 42.7581C4.72795 42.7454 4.72795 42.7328 4.72795 42.7201C4.72795 42.5554 4.71528 42.3844 4.71528 42.2197C4.70262 41.9727 4.70262 41.7194 4.70262 41.4724C4.70262 40.2183 4.76596 38.9768 4.89263 37.7544C4.89263 37.6657 4.91163 37.5771 4.91797 37.4884C4.93063 37.3871 4.93697 37.2857 4.95597 37.1844C4.97497 36.95 5.00664 36.7157 5.04464 36.4877C5.04464 36.475 5.04464 36.4623 5.04464 36.4497C5.07631 36.1963 5.11431 35.9493 5.15865 35.7023C5.32333 34.6255 5.53868 33.5678 5.8047 32.529C5.85537 32.3264 5.90604 32.1237 5.96304 31.921C6.05805 31.56 6.15939 31.2053 6.26706 30.8569C6.26706 30.8252 6.27973 30.7936 6.29873 30.7619C6.35574 30.5846 6.41274 30.4009 6.46975 30.2172C10.1877 18.848 19.2957 9.8604 30.7725 6.35147C31.0259 6.26913 31.2855 6.19313 31.5389 6.12346C32.0266 5.98411 32.5143 5.85744 33.002 5.74343C33.0653 5.72443 33.135 5.70543 33.1983 5.69276C33.686 5.57875 34.1801 5.47741 34.6741 5.38874C34.9021 5.3444 35.1365 5.30007 35.3708 5.26206C35.4595 5.24306 35.5482 5.23039 35.6369 5.21773C35.8395 5.18606 36.0422 5.15439 36.2449 5.12905C36.7706 5.04671 37.3026 4.98338 37.8347 4.9327C38.1134 4.90104 38.3921 4.8757 38.6707 4.8567C39.2281 4.81236 39.7855 4.78703 40.3492 4.76803C40.7292 4.75536 41.1156 4.74902 41.4956 4.74902C41.8756 4.74902 42.2683 4.74903 42.642 4.76803C43.2057 4.78703 43.7631 4.81236 44.3205 4.8567C44.5992 4.8757 44.8779 4.90104 45.1565 4.9327C45.6886 4.98338 46.2206 5.04671 46.7463 5.12905C46.949 5.15439 47.1517 5.18606 47.3544 5.21773C47.443 5.23039 47.5317 5.24306 47.6204 5.26206C47.8547 5.30007 48.0891 5.3444 48.3171 5.38874C48.8175 5.47741 49.3115 5.57875 49.7929 5.69276C49.8689 5.71176 49.9386 5.72443 50.0146 5.74976C50.5023 5.85744 50.9836 5.98411 51.4587 6.12346C51.712 6.19313 51.9717 6.26913 52.2251 6.35147C52.5481 6.44648 52.8648 6.55416 53.1815 6.66183C53.2195 6.6745 53.2575 6.68717 53.2955 6.69983C53.2955 6.69983 53.3335 6.7125 53.3525 6.71883C53.6628 6.82651 53.9669 6.92785 54.2709 7.04186C54.4039 7.09253 54.5432 7.1432 54.6762 7.2002C54.7459 7.22554 54.8156 7.25721 54.8853 7.28254C55.0246 7.33321 55.1639 7.38388 55.3033 7.44089C55.7846 7.6309 56.266 7.83992 56.7284 8.0616C56.8994 8.13127 57.0704 8.21361 57.2414 8.30228C57.2984 8.32762 57.3618 8.35929 57.4188 8.39096C57.6341 8.48596 57.8431 8.59364 58.0521 8.70131C58.3182 8.83432 58.5842 8.96733 58.8502 9.11934C58.9009 9.14468 58.9452 9.16368 58.9959 9.18901C59.0466 9.22068 59.0909 9.24602 59.1416 9.27769C59.1986 9.30936 59.2619 9.34102 59.3189 9.37903C59.6863 9.57537 60.0473 9.78439 60.3957 10.0061C60.6553 10.1517 60.915 10.3164 61.1684 10.4811C61.3521 10.5888 61.5294 10.7028 61.7067 10.8295C61.9221 10.9688 62.1374 11.1145 62.3528 11.2602C62.6061 11.4312 62.8532 11.6085 63.0938 11.7922C63.0938 11.7922 63.0981 11.7964 63.1065 11.8049C63.1065 11.8049 63.1762 11.8492 63.2079 11.8745C63.2395 11.8935 63.2712 11.9062 63.2965 11.9315C63.3282 11.9569 63.3535 11.9822 63.3852 12.0076C63.4295 12.0456 63.4802 12.0772 63.5309 12.1152C63.9362 12.4192 64.3289 12.7359 64.7216 13.0526C65.0953 13.3566 65.4564 13.667 65.8174 13.9837C66.0454 14.1864 66.2671 14.3891 66.4888 14.5917C66.7991 14.8831 67.1158 15.1681 67.4135 15.4721C67.6605 15.7192 67.9012 15.9725 68.1419 16.2259C68.6676 16.7769 69.1743 17.3469 69.662 17.9296C69.928 18.2527 70.213 18.563 70.4664 18.8924C70.5551 19.0001 70.6311 19.1141 70.7134 19.2217C70.8717 19.4244 71.0301 19.6334 71.1821 19.8425C71.3341 20.0515 71.4861 20.2605 71.6318 20.4695C71.8155 20.7228 71.9928 20.9825 72.1575 21.2422C72.4172 21.6286 72.6705 22.0213 72.9112 22.414C73.1456 22.794 73.3673 23.1867 73.5826 23.5731C73.7283 23.8391 73.874 24.0988 74.0133 24.3711C74.1273 24.5928 74.2413 24.8081 74.3553 25.0298C74.368 25.0552 74.3807 25.0805 74.3933 25.0995C74.444 25.1882 74.4947 25.2832 74.539 25.3782C74.5833 25.4732 74.6277 25.5682 74.672 25.6632C74.805 25.9292 74.9317 26.2016 75.052 26.4803C75.0647 26.5056 75.0774 26.5309 75.0837 26.5563C75.1217 26.6449 75.1597 26.7273 75.1977 26.816C75.2737 26.9806 75.3434 27.1453 75.4131 27.31C75.4384 27.367 75.4637 27.424 75.4891 27.481C75.5144 27.5443 75.5398 27.614 75.5651 27.6837C75.6221 27.8104 75.6728 27.937 75.7171 28.0637C75.8121 28.2854 75.8944 28.5134 75.9704 28.7351C76.0021 28.8048 76.0275 28.8744 76.0528 28.9441C76.1161 29.1088 76.1731 29.2671 76.2238 29.4318C76.2365 29.4508 76.2428 29.4762 76.2491 29.5015C76.3378 29.7548 76.4265 30.0082 76.5088 30.2679C76.5658 30.4516 76.6228 30.6352 76.6798 30.8126C76.6988 30.8442 76.7052 30.8759 76.7115 30.9076C76.8192 31.2623 76.9205 31.617 77.0155 31.9717C77.0725 32.1743 77.1232 32.377 77.1739 32.5797C77.4399 33.6184 77.6552 34.6762 77.8199 35.7529C77.8643 36 77.9023 36.247 77.9339 36.5003C77.9339 36.513 77.9339 36.5257 77.9339 36.5383C77.9719 36.7663 78.0036 37.0007 78.0226 37.235C78.0416 37.3364 78.0479 37.4377 78.0606 37.5391C78.0733 37.6277 78.0796 37.7164 78.0859 37.8051C78.2126 39.0275 78.2759 40.2689 78.2759 41.523C78.2759 41.77 78.2759 42.0234 78.2633 42.2704L78.2189 42.2324Z" fill="var(--fill-0, #9B856B)"/>
</g>
<path id="Vector_3" d="M42.357 36.4687L60.2943 33.3651C61.2254 33.2068 62.0804 33.9225 62.0804 34.8662V48.1165C62.0804 49.0602 61.2254 49.7823 60.2943 49.6176L42.357 46.5141C40.7419 46.2354 39.8868 48.3509 41.2359 49.2756L58.0078 60.7271C59.2429 61.5695 58.6475 63.5076 57.1464 63.5076H33.6924C27.0482 63.5076 21.2655 58.9853 19.6694 52.5375L18.1556 46.438C18.0796 46.134 17.9149 45.8617 17.6806 45.6527L14.216 42.6378C13.5193 42.0297 13.5193 40.9466 14.216 40.3386L17.6806 37.3237C17.9149 37.121 18.0859 36.8423 18.1556 36.5383L19.6694 30.4389C21.2718 23.9911 27.0546 19.4688 33.6924 19.4688H57.1464C58.6475 19.4688 59.2429 21.4069 58.0078 22.2493L41.2359 33.7008C39.8805 34.6255 40.7419 36.741 42.357 36.4623V36.4687Z" fill="var(--fill-0, #9B856B)"/>
</g>
</svg>
