<svg preserveAspectRatio="none" width="100%" height="100%" overflow="visible" style="display: block;" viewBox="0 0 82.9854 82.9854" fill="none" xmlns="http://www.w3.org/2000/svg">
<g id="Group">
<path id="Vector" d="M41.4927 5.06703C61.5771 5.06703 77.9183 21.4082 77.9183 41.4927C77.9183 61.5771 61.5771 77.9183 41.4927 77.9183C21.4082 77.9183 5.06703 61.5771 5.06703 41.4927C5.06703 21.4082 21.4082 5.06703 41.4927 5.06703ZM41.4927 0C18.577 0 0 18.577 0 41.4927C0 64.4083 18.577 82.9853 41.4927 82.9853C64.4083 82.9853 82.9853 64.4083 82.9853 41.4927C82.9853 18.577 64.4083 0 41.4927 0Z" fill="var(--fill-0, #9B856B)"/>
<path id="Vector_2" d="M56.9218 46.8257C64.0156 43.5512 68.405 36.299 68.0249 28.5084L67.8412 24.6701C67.7779 23.2894 66.6378 22.1999 65.2507 22.1936L53.4192 22.1683C50.4297 22.1683 47.7378 23.9734 46.6167 26.7413L42.6708 36.47C42.2401 37.5341 40.7263 37.5341 40.2956 36.47L36.3496 26.7413C35.2222 23.9734 32.543 22.1683 29.5471 22.1683H17.722C16.3349 22.1683 15.1948 23.2577 15.1251 24.6448L14.9414 28.5084C14.5677 36.299 18.957 43.5512 26.0446 46.8257L27.9637 47.7061C28.7237 48.0545 28.7301 49.1439 27.9637 49.4923C24.6195 50.987 22.2949 54.3376 22.2949 58.2392C22.2949 63.5406 26.5893 67.8349 31.8906 67.8349C34.9815 67.8349 37.7304 66.3718 39.4849 64.1043C40.5109 62.7742 42.4554 62.7742 43.4815 64.1043C45.2359 66.3718 47.9848 67.8349 51.0757 67.8349C56.3771 67.8349 60.6714 63.5406 60.6714 58.2392C60.6714 54.3376 58.3406 50.987 54.9963 49.4923C54.2299 49.1502 54.2299 48.0608 54.9963 47.7061L56.9155 46.8257H56.9218ZM57.6122 26.9693C59.9177 26.9693 61.7798 28.8441 61.7798 31.1433C61.7798 33.4424 59.9177 35.3172 57.6122 35.3172C55.3067 35.3172 53.4382 33.4424 53.4382 31.1433C53.4382 28.8441 55.3003 26.9693 57.6122 26.9693ZM25.3668 35.3172C23.0613 35.3172 21.1929 33.4424 21.1929 31.1433C21.1929 28.8441 23.0677 26.9693 25.3668 26.9693C27.666 26.9693 29.5408 28.8441 29.5408 31.1433C29.5408 33.4424 27.666 35.3172 25.3668 35.3172Z" fill="var(--fill-0, #9B856B)"/>
</g>
</svg>
