<svg preserveAspectRatio="none" width="100%" height="100%" overflow="visible" style="display: block;" viewBox="0 0 22 15.2723" fill="none" xmlns="http://www.w3.org/2000/svg">
<g id="Asset 23 1" clip-path="url(#clip0_643_7262)">
<path id="Vector" d="M21.2881 8.37512H5.65703C5.26404 8.37512 4.9451 8.05617 4.9451 7.66319C4.9451 7.2702 5.26404 6.95126 5.65703 6.95126H21.2881C21.6811 6.95126 22 7.2702 22 7.66319C22 8.05617 21.6811 8.37512 21.2881 8.37512Z" fill="#0D0C0D"/>
<path id="Vector_2" d="M21.288 14.1502H5.65694C5.26396 14.1502 4.94501 13.8313 4.94501 13.4383C4.94501 13.0453 5.26396 12.7264 5.65694 12.7264H21.288C21.681 12.7264 22 13.0453 22 13.4383C22 13.8313 21.681 14.1502 21.288 14.1502Z" fill="#0D0C0D"/>
<g id="Group">
<path id="Vector_3" d="M21.2881 2.48463H5.65703C5.26404 2.48463 4.9451 2.16569 4.9451 1.7727C4.9451 1.37972 5.26404 1.06078 5.65703 1.06078H21.2881C21.6811 1.06078 22 1.37972 22 1.7727C22 2.16569 21.6811 2.48463 21.2881 2.48463Z" fill="#0D0C0D"/>
<path id="Vector_4" d="M1.79121 3.58242C2.78047 3.58242 3.58242 2.78047 3.58242 1.79121C3.58242 0.801952 2.78047 0 1.79121 0C0.801952 0 0 0.801952 0 1.79121C0 2.78047 0.801952 3.58242 1.79121 3.58242Z" fill="#0D0C0D"/>
<path id="Vector_5" d="M1.79121 9.45441C2.78047 9.45441 3.58242 8.65245 3.58242 7.6632C3.58242 6.67394 2.78047 5.87199 1.79121 5.87199C0.801952 5.87199 0 6.67394 0 7.6632C0 8.65245 0.801952 9.45441 1.79121 9.45441Z" fill="#0D0C0D"/>
<path id="Vector_6" d="M1.79121 15.2295C2.78047 15.2295 3.58242 14.4275 3.58242 13.4383C3.58242 12.449 2.78047 11.6471 1.79121 11.6471C0.801952 11.6471 0 12.449 0 13.4383C0 14.4275 0.801952 15.2295 1.79121 15.2295Z" fill="#0D0C0D"/>
</g>
</g>
<defs>
<clipPath id="clip0_643_7262">
<rect width="22" height="15.2723" fill="white"/>
</clipPath>
</defs>
</svg>
