<svg preserveAspectRatio="none" width="100%" height="100%" overflow="visible" style="display: block;" viewBox="0 0 7.02808 12.1119" fill="none" xmlns="http://www.w3.org/2000/svg">
<path id="Vector" d="M6.87327 3.88575C6.77024 3.98773 6.63567 4.03925 6.5011 4.03925C6.36652 4.03925 6.23195 3.98773 6.12997 3.88575L4.39211 2.14789C4.26174 2.01752 4.03886 2.11004 4.03886 2.29402V11.5637C4.03886 11.8381 3.83805 12.0831 3.5647 12.1093C3.2514 12.1398 2.98752 11.8938 2.98752 11.5858V2.29402C2.98752 2.11004 2.76463 2.01752 2.63427 2.14789L0.897451 3.88575C0.691388 4.09077 0.359164 4.09077 0.154153 3.88575C-0.0508583 3.68074 -0.0519097 3.34747 0.154153 3.14246L3.1305 0.167163L3.14311 0.154547C3.18201 0.115647 3.22617 0.0830559 3.27243 0.0588751C3.2861 0.0515157 3.30187 0.0452076 3.31659 0.0388996C3.36284 0.0199755 3.41226 0.00735938 3.46062 0.00315402C3.47849 0.00105134 3.49636 0 3.51424 0C3.53211 0 3.54998 0.00105134 3.56786 0.00315402C3.61727 0.00735938 3.66563 0.0199755 3.71189 0.0388996C3.72345 0.043105 3.73502 0.0483617 3.74553 0.0536184C3.796 0.0788505 3.84436 0.112493 3.88641 0.154547L6.87432 3.14246C7.07933 3.34747 7.07933 3.67969 6.87432 3.88575H6.87327Z" fill="#0D0C0D" stroke="#0D0C0D" stroke-width="0.16" stroke-linejoin="round"/>
</svg>
