<svg preserveAspectRatio="none" width="100%" height="100%" overflow="visible" style="display: block;" viewBox="0 0 40 40.0017" fill="none" xmlns="http://www.w3.org/2000/svg">
<path id="Vector" fill-rule="evenodd" clip-rule="evenodd" d="M4.02887 10.1127C4.06415 11.8976 3.09291 14.3104 1.83006 15.5709C0.658231 16.7439 0 18.334 0 19.9921C0 21.6501 0.658231 23.2402 1.83006 24.4132C3.07644 25.6549 3.9936 27.809 4.02887 29.5681C4.0618 31.1249 4.67088 32.6723 5.85848 33.8575C6.95416 34.9554 8.4199 35.6053 9.9692 35.6801C11.8294 35.7741 14.2657 36.8559 15.5827 38.1729C16.7555 39.344 18.3452 40.0017 20.0026 40.0017C21.6601 40.0017 23.2497 39.344 24.4226 38.1729C25.7395 36.8559 28.1759 35.7741 30.0361 35.6801C31.5854 35.6053 33.0511 34.9554 34.1468 33.8575C35.2891 32.7168 35.9441 31.1774 35.974 29.5634C36.0093 27.809 36.9147 25.669 38.1587 24.4273C39.335 23.2547 39.9973 21.6629 40 20.002C40.0026 18.3411 39.3454 16.7472 38.1729 15.5709C36.9124 14.3128 35.9388 11.8976 35.9764 10.115C35.9941 9.27338 35.8411 8.43689 35.5267 7.65601C35.2122 6.87513 34.7428 6.16606 34.1468 5.57157C33.5291 4.95224 32.7879 4.46988 31.9715 4.15587C31.1551 3.84186 30.2817 3.70324 29.4082 3.74902C27.7291 3.83368 25.6102 3.02 24.4226 1.83006C23.2497 0.658231 21.6595 0 20.0015 0C18.3434 0 16.7533 0.658231 15.5803 1.83006C14.3951 3.01765 12.2738 3.83368 10.5948 3.74902C9.72161 3.70357 8.84868 3.84236 8.03269 4.15636C7.2167 4.47035 6.47592 4.95254 5.85848 5.57157C5.26275 6.16578 4.79351 6.87447 4.47907 7.65493C4.16463 8.43538 4.01148 9.27142 4.02887 10.1127ZM27.1411 12.0551C27.4113 12.205 27.6492 12.4067 27.8414 12.6485C28.0336 12.8904 28.1762 13.1678 28.2611 13.4648C28.3461 13.7618 28.3717 14.0726 28.3365 14.3795C28.3013 14.6864 28.206 14.9834 28.0559 15.2534L21.5465 26.9695C21.3779 27.2886 21.1381 27.5646 20.8457 27.7761C20.4208 28.0835 19.9053 28.2401 19.3812 28.2209C18.8571 28.2017 18.3545 28.0079 17.9531 27.6703L11.4649 22.4801C11.2237 22.2871 11.0229 22.0485 10.8739 21.7778C10.7249 21.5072 10.6307 21.2099 10.5967 20.9029C10.5626 20.5958 10.5893 20.2851 10.6753 19.9884C10.7614 19.6917 10.905 19.4149 11.098 19.1737C11.291 18.9325 11.5297 18.7317 11.8003 18.5827C12.0709 18.4337 12.3682 18.3395 12.6753 18.3054C12.9823 18.2714 13.293 18.2981 13.5897 18.3841C13.8864 18.4702 14.1633 18.6138 14.4045 18.8068L18.7621 22.2943L23.9429 12.9676C24.0929 12.6977 24.2947 12.46 24.5367 12.268C24.7786 12.0761 25.056 11.9337 25.353 11.8489C25.65 11.7642 25.9608 11.7388 26.2676 11.7742C26.5744 11.8096 26.8712 11.905 27.1411 12.0551Z" fill="var(--fill-0, #67765B)"/>
</svg>
