<svg preserveAspectRatio="none" width="100%" height="100%" overflow="visible" style="display: block;" viewBox="0 0 22 15.6791" fill="none" xmlns="http://www.w3.org/2000/svg">
<g id="Layer 1">
<path id="Vector" d="M21.4231 9.07504H21.4242L21.392 9.02171C21.3631 8.97292 21.3332 8.92412 21.3032 8.87647L16.4781 1.0459C16.4412 0.977815 16.402 0.913137 16.3582 0.850728L16.3548 0.845055H16.3536C16.0043 0.350325 15.4303 0.020127 14.7767 0.000837114C13.6483 -0.0320692 12.725 0.909733 12.725 2.01947V2.90567C12.725 3.21658 12.4691 3.46848 12.1532 3.46848H9.84789C9.53206 3.46848 9.27616 3.21658 9.27616 2.90567V2.01947C9.27616 0.910867 8.35287 -0.0309345 7.2244 0.000837114C6.57083 0.0189923 5.99679 0.34919 5.64753 0.84392H5.64638L5.64292 0.849593C5.59912 0.912002 5.55878 0.97668 5.52304 1.04476L0.697937 8.87647C0.666815 8.92412 0.637998 8.97292 0.608028 9.02171L0.575753 9.0739H0.578059C0.151568 9.82054 -0.0639825 10.6977 0.0167049 11.6293C0.201133 13.7534 1.93822 15.4713 4.09488 15.6608C6.21926 15.8481 8.07738 14.5727 8.74708 12.7435C8.82777 12.5245 9.04447 12.3816 9.28192 12.3816H12.7192C12.9567 12.3816 13.1734 12.5245 13.2541 12.7435C13.9238 14.5727 15.7807 15.8481 17.9063 15.6608C20.0629 15.4713 21.7988 13.7534 21.9833 11.6293C22.064 10.6977 21.8496 9.82054 21.4231 9.07504ZM4.50638 14.6158C2.61484 14.6158 1.08063 13.1055 1.08063 11.2435C1.08063 9.38141 2.61484 7.87112 4.50638 7.87112C6.39793 7.87112 7.93329 9.38027 7.93329 11.2435C7.93329 13.1066 6.39908 14.6158 4.50638 14.6158ZM17.4948 14.6158C15.6032 14.6158 14.069 13.1055 14.069 11.2435C14.069 9.38141 15.6032 7.87112 17.4948 7.87112C19.3863 7.87112 20.9205 9.38027 20.9205 11.2435C20.9205 13.1066 19.3874 14.6158 17.4948 14.6158Z" fill="#C8CFBF"/>
</g>
</svg>
