<svg preserveAspectRatio="none" width="100%" height="100%" overflow="visible" style="display: block;" viewBox="0 0 12.8905 12.1545" fill="none" xmlns="http://www.w3.org/2000/svg">
<path id="Vector" d="M11.1779 12.1545H1.71263C0.76853 12.1545 0 11.386 0 10.4419V1.71263C0 0.76853 0.76853 0 1.71263 0H4.13072C4.42089 0 4.65639 0.2355 4.65639 0.52567C4.65639 0.81584 4.42089 1.05134 4.13072 1.05134H1.71263C1.34782 1.05134 1.05134 1.34782 1.05134 1.71263V10.4419C1.05134 10.8067 1.34782 11.1032 1.71263 11.1032H11.1779C11.5427 11.1032 11.8391 10.8067 11.8391 10.4419V1.71263C11.8391 1.34782 11.5427 1.05134 11.1779 1.05134H8.75977C8.4696 1.05134 8.2341 0.81584 8.2341 0.52567C8.2341 0.2355 8.4696 0 8.75977 0H11.1779C12.122 0 12.8905 0.76853 12.8905 1.71263V10.4419C12.8905 11.386 12.122 12.1545 11.1779 12.1545Z" fill="#0D0C0D"/>
</svg>
