<svg preserveAspectRatio="none" width="100%" height="100%" overflow="visible" style="display: block;" viewBox="0 0 19.4096 21.9346" fill="none" xmlns="http://www.w3.org/2000/svg">
<g id="Group">
<path id="Vector" d="M16.0872 0H4.86692C3.03032 0 1.54084 1.48947 1.54084 3.32731V5.78555C1.54084 5.93573 1.41898 6.0576 1.2688 6.0576H0.588074C0.296334 6.0576 0.032907 6.27055 0.00705663 6.56229C-0.0212557 6.89096 0.236017 7.16547 0.558531 7.16547H1.26757C1.41775 7.16547 1.53961 7.28733 1.53961 7.43751V8.41244C1.53961 8.56262 1.41775 8.68448 1.26757 8.68448H0.586843C0.295103 8.68448 0.031676 8.89744 0.00582566 9.18918C-0.0224866 9.51785 0.234786 9.79236 0.5573 9.79236H1.26634C1.41652 9.79236 1.53838 9.91422 1.53838 10.0644V11.0393C1.53838 11.1895 1.41652 11.3114 1.26634 11.3114H0.585612C0.293872 11.3114 0.030445 11.5243 0.00459469 11.8161C-0.0237176 12.1447 0.233555 12.4192 0.556069 12.4192H1.26511C1.41528 12.4192 1.53715 12.5411 1.53715 12.6913V13.6662C1.53715 13.8164 1.41528 13.9383 1.26511 13.9383H0.584381C0.292641 13.9383 0.0292141 14.1512 0.00336372 14.443C-0.0249486 14.7716 0.232324 15.0461 0.554838 15.0461H1.26388C1.41405 15.0461 1.53592 15.168 1.53592 15.3182V16.2931C1.53592 16.4433 1.41405 16.5651 1.26388 16.5651H0.58315C0.29141 16.5651 0.0279831 16.7781 0.00213275 17.0698C-0.0261795 17.3985 0.231093 17.673 0.553607 17.673H1.26264C1.41282 17.673 1.53469 17.7949 1.53469 17.9451V18.6073C1.53469 20.4452 3.02416 21.9346 4.862 21.9346H16.0823C17.9201 21.9346 19.4096 20.4452 19.4096 18.6073V3.32731C19.4096 1.48947 17.9201 0 16.0823 0H16.0872ZM2.64872 18.6036V17.9414C2.64872 17.7912 2.77058 17.6693 2.92076 17.6693H3.60148C3.89322 17.6693 4.15665 17.4564 4.1825 17.1646C4.21081 16.836 3.95354 16.5615 3.63103 16.5615H2.92199C2.77181 16.5615 2.64995 16.4396 2.64995 16.2894V15.3145C2.64995 15.1643 2.77181 15.0424 2.92199 15.0424H3.60272C3.89446 15.0424 4.15788 14.8295 4.18373 14.5377C4.21205 14.2091 3.95477 13.9346 3.63226 13.9346H2.92322C2.77304 13.9346 2.65118 13.8127 2.65118 13.6625V12.6876C2.65118 12.5374 2.77304 12.4156 2.92322 12.4156H3.60395C3.89569 12.4156 4.15911 12.2026 4.18496 11.9109C4.21328 11.5822 3.956 11.3077 3.63349 11.3077H2.92445C2.77427 11.3077 2.65241 11.1858 2.65241 11.0356V10.0607C2.65241 9.91053 2.77427 9.78866 2.92445 9.78866H3.60518C3.89692 9.78866 4.16034 9.57571 4.1862 9.28397C4.21451 8.9553 3.95723 8.68079 3.63472 8.68079H2.92568C2.77551 8.68079 2.65364 8.55892 2.65364 8.40875V7.43382C2.65364 7.28364 2.77551 7.16178 2.92568 7.16178H3.60641C3.89815 7.16178 4.16158 6.94882 4.18743 6.65708C4.21574 6.32841 3.95847 6.0539 3.63595 6.0539H2.92691C2.77674 6.0539 2.65487 5.93204 2.65487 5.78186V3.32362C2.65487 2.09757 3.64826 1.10418 4.87431 1.10418H14.6125C14.8981 1.10418 15.1307 1.3356 15.1307 1.62242V20.3011C15.1307 20.5867 14.8993 20.8194 14.6125 20.8194H4.86692C3.64088 20.8194 2.64748 19.826 2.64748 18.5999L2.64872 18.6036ZM18.3066 18.6036C18.3066 19.5281 17.7392 20.3196 16.9341 20.652C16.5981 20.7911 16.2312 20.5313 16.2312 20.1682V1.76152C16.2312 1.39838 16.5981 1.13988 16.9341 1.27775C17.7392 1.61011 18.3066 2.40285 18.3066 3.32608V18.6024V18.6036Z" fill="#C8CFBF"/>
<path id="Vector_2" d="M12.1284 5.28823H6.85371C6.285 5.28823 5.82216 5.75108 5.82216 6.31979V10.6528C5.82216 11.2215 6.285 11.6843 6.85371 11.6843H12.1284C12.6971 11.6843 13.16 11.2215 13.16 10.6528V6.31979C13.16 5.75108 12.6971 5.28823 12.1284 5.28823Z" fill="#C8CFBF"/>
<path id="Vector_3" d="M12.6048 13.4077H6.37609C6.06958 13.4077 5.82216 13.6551 5.82216 13.9617C5.82216 14.2682 6.06958 14.5156 6.37609 14.5156H12.6048C12.9113 14.5156 13.1587 14.2682 13.1587 13.9617C13.1587 13.6551 12.9113 13.4077 12.6048 13.4077Z" fill="#C8CFBF"/>
<path id="Vector_4" d="M12.6048 15.3268H6.37609C6.06958 15.3268 5.82216 15.5742 5.82216 15.8807C5.82216 16.1872 6.06958 16.4346 6.37609 16.4346H12.6048C12.9113 16.4346 13.1587 16.1872 13.1587 15.8807C13.1587 15.5742 12.9113 15.3268 12.6048 15.3268Z" fill="#C8CFBF"/>
</g>
</svg>
