<svg preserveAspectRatio="none" width="100%" height="100%" overflow="visible" style="display: block;" viewBox="0 0 82.9854 82.979" fill="none" xmlns="http://www.w3.org/2000/svg">
<g id="Layer 1">
<path id="Vector" d="M41.4927 0C18.577 0 0 18.577 0 41.4927C0 64.4083 18.577 82.979 41.4927 82.979C64.4083 82.979 82.9853 64.4083 82.9853 41.4927C82.9853 18.577 64.4083 0 41.4927 0ZM58.5306 73.662C55.8197 75.0998 52.4691 73.6747 51.5887 70.7358L51.3797 70.0454C49.1376 62.5589 47.7505 54.8443 47.2438 47.0537C58.9866 46.5534 67.7652 44.5646 67.7652 42.1831C67.7652 42.1831 69.8427 14.327 41.499 14.327C13.1553 14.327 15.2328 42.1831 15.2328 42.1831C15.2328 44.5646 24.0051 46.5534 35.7479 47.0537C35.2412 54.8443 33.8478 62.5589 31.6056 70.0454L31.3966 70.7421C30.5225 73.662 27.1973 75.1188 24.4991 73.6873C12.5156 67.3409 4.48433 54.5149 5.10504 39.9092C5.89676 21.1992 21.0472 5.9791 39.7445 5.0987C60.6207 4.1233 77.9183 20.8192 77.9183 41.4863C77.9183 55.4143 70.0581 67.5372 58.5306 73.6557V73.662Z" fill="var(--fill-0, #9B856B)"/>
</g>
</svg>
