<svg preserveAspectRatio="none" width="100%" height="100%" overflow="visible" style="display: block;" viewBox="0 0 59.8086 58.9517" fill="none" xmlns="http://www.w3.org/2000/svg">
<g id="Layer 1">
<path id="Vector" d="M32.6297 0.120292C13.9997 -1.5177 -1.53964 13.8002 0.122031 32.1646C1.39568 46.2405 12.895 57.5759 27.1744 58.8314C45.8044 60.4694 61.3483 45.147 59.6866 26.7826C58.413 12.7112 46.9137 1.37128 32.6297 0.120292ZM3.34495 29.4781C3.34495 16.6802 12.7078 6.00175 25.0334 3.74277C26.7545 3.42777 28.3385 4.75976 28.3385 6.48325V12.9992C28.3385 13.2242 28.0509 13.3187 27.914 13.1387C26.1017 10.7537 23.2166 9.20573 19.9617 9.20573C19.9617 9.20573 19.9617 9.20573 19.9571 9.20573C19.5965 9.20573 19.3135 9.51623 19.3363 9.87623C19.5965 13.6607 22.0342 16.8557 25.4215 18.2552L25.4489 18.2642C27.1973 18.9797 28.3385 20.6672 28.3385 22.5346V24.7801C28.3385 25.1266 27.8775 25.2481 27.6949 24.9511C24.9878 20.5232 20.0667 17.5577 14.438 17.5577C14.3102 17.5577 14.1869 17.5577 14.0637 17.5577C13.7167 17.5667 13.4291 17.8502 13.4428 18.1922C13.6939 24.2491 17.5377 29.3926 22.929 31.6201C23.5635 31.8811 24.2254 32.1016 24.9011 32.2771C26.9051 32.7946 28.3385 34.5316 28.3385 36.5746V40.5345C28.3385 40.8855 27.8546 41.007 27.6903 40.6965C24.3806 34.3966 17.7066 30.0856 10.0145 30.0856C9.78165 30.0856 9.5534 30.0856 9.32515 30.0991C8.98733 30.1126 8.718 30.4006 8.73169 30.7336C8.98733 38.604 13.9541 45.3 20.9386 48.1845C22.194 48.702 24.3122 49.107 25.9601 49.3635C27.3297 49.5795 28.3385 50.7405 28.3385 52.1085V52.7654C28.3385 54.3404 26.9005 55.5374 25.3256 55.2674C12.8539 53.1209 3.34495 42.3795 3.34495 29.4826V29.4781ZM34.4785 55.2629C32.9081 55.5329 31.4656 54.3359 31.4656 52.7609V52.104C31.4656 50.736 32.479 49.575 33.8531 49.359C35.5011 49.098 37.6147 48.6975 38.8701 48.18C45.8546 45.2955 50.8213 38.5995 51.077 30.7291C51.0861 30.3961 50.8213 30.1081 50.4835 30.0946C50.2553 30.0856 50.0225 30.0811 49.7942 30.0811C42.1021 30.0811 35.428 34.3921 32.1184 40.692C31.954 41.007 31.4701 40.8855 31.4701 40.53V36.5701C31.4701 34.5271 32.899 32.7901 34.9076 32.2726C35.5832 32.0971 36.2452 31.8766 36.8797 31.6156C42.2665 29.3881 46.1102 24.2446 46.3659 18.1877C46.3796 17.8457 46.0965 17.5577 45.745 17.5532C45.6218 17.5532 45.4939 17.5532 45.3707 17.5532C39.7466 17.5532 34.8209 20.5187 32.1138 24.9466C31.9312 25.2436 31.4701 25.1266 31.4701 24.7756V22.5301C31.4701 20.6627 32.6114 18.9752 34.3598 18.2597L34.3872 18.2507C37.7745 16.8512 40.2122 13.6562 40.4724 9.87173C40.4952 9.51623 40.2168 9.20123 39.8516 9.20123C39.8516 9.20123 39.847 9.20123 39.8424 9.20123C36.5876 9.20123 33.7024 10.7492 31.8901 13.1342C31.7532 13.3142 31.4656 13.2197 31.4656 12.9947V6.47875C31.4656 4.75076 33.0496 3.42327 34.7707 3.73827C47.0963 5.99725 56.4592 16.6757 56.4592 29.4736C56.4592 42.3705 46.9502 53.1164 34.4785 55.2584V55.2629Z" fill="#9B856B"/>
</g>
</svg>
