<svg preserveAspectRatio="none" width="100%" height="100%" overflow="visible" style="display: block;" viewBox="0 0 10.4404 10.4404" fill="none" xmlns="http://www.w3.org/2000/svg">
<path id="Vector" d="M9.56792 0.0788143L4.01497 3.25456C3.69875 3.43544 3.43667 3.69752 3.25579 4.01374L0.0800446 9.56792C-0.214029 10.081 0.359353 10.6544 0.872444 10.3603L6.42662 7.18457C6.74284 7.0037 7.00493 6.74161 7.1858 6.42539L10.3603 0.872444C10.6544 0.359353 10.081 -0.214029 9.56792 0.0800446V0.0788143ZM5.2208 6.87696C4.30535 6.87696 3.5634 6.13501 3.5634 5.21957C3.5634 4.76185 3.7492 4.34842 4.05065 4.04696C4.35088 3.74674 4.76431 3.56094 5.22203 3.56094C6.13747 3.56094 6.87942 4.30289 6.87942 5.21834C6.87942 5.67606 6.69486 6.09071 6.39463 6.39094C6.09317 6.6924 5.67852 6.87696 5.2208 6.87696Z" fill="var(--fill-0, #231F20)"/>
</svg>
