<svg preserveAspectRatio="none" width="100%" height="100%" overflow="visible" style="display: block;" viewBox="0 0 10 14" fill="none" xmlns="http://www.w3.org/2000/svg">
<g id="Layer 1">
<path id="Vector" d="M9.99826 4.96301C9.99826 2.22233 7.76048 0 5.00074 0C2.24101 0 0.00248386 2.22233 0.00248386 4.96301C0.00248386 4.96301 -0.253665 9.28897 4.43647 13.7749C4.75053 14.075 5.24947 14.075 5.56353 13.7749C10.2537 9.28897 9.99752 4.96301 9.99752 4.96301H9.99826ZM5.27248 0.793374C7.36771 0.92462 9.07167 2.61976 9.19937 4.70052C9.3486 7.12857 7.41078 9.14298 5 9.14298C2.58922 9.14298 0.793207 7.27162 0.793207 4.96301C0.793207 2.65441 2.82607 0.640008 5.27248 0.793374Z" fill="var(--fill-0, #454649)"/>
</g>
</svg>
