<svg preserveAspectRatio="none" width="100%" height="100%" overflow="visible" style="display: block;" viewBox="0 0 13.0718 9.31609" fill="none" xmlns="http://www.w3.org/2000/svg">
<g id="Layer 1">
<path id="Vector" d="M12.729 5.39215H12.7297L12.7105 5.36046C12.6934 5.33147 12.6756 5.30248 12.6578 5.27416L9.79085 0.621444C9.76893 0.580992 9.74565 0.542562 9.71962 0.50548L9.71757 0.502109H9.71688C9.50936 0.208154 9.16828 0.011959 8.77995 0.000497391C8.10944 -0.0190547 7.56085 0.540539 7.56085 1.19992V1.72647C7.56085 1.91121 7.4088 2.06088 7.22114 2.06088H5.85136C5.6637 2.06088 5.51165 1.91121 5.51165 1.72647V1.19992C5.51165 0.541213 4.96305 -0.0183805 4.29255 0.000497391C3.90421 0.0112847 3.56314 0.20748 3.35562 0.501435H3.35493L3.35288 0.504806C3.32685 0.541888 3.30288 0.580318 3.28165 0.62077L0.414696 5.27416C0.396204 5.30248 0.379082 5.33147 0.361275 5.36046L0.342098 5.39148H0.343467C0.0900578 5.83511 -0.0380167 6.35627 0.0099256 6.9098C0.119508 8.17192 1.15164 9.19267 2.43307 9.30526C3.69532 9.41651 4.79937 8.6587 5.19729 7.57187C5.24523 7.44175 5.37399 7.3568 5.51508 7.3568H7.55742C7.69851 7.3568 7.82727 7.44175 7.87521 7.57187C8.27313 8.6587 9.37649 9.41651 10.6394 9.30526C11.9209 9.19267 12.9523 8.17192 13.0619 6.9098C13.1098 6.35627 12.9824 5.83511 12.729 5.39215ZM2.67757 8.68432C1.55367 8.68432 0.64208 7.78694 0.64208 6.68057C0.64208 5.57419 1.55367 4.67681 2.67757 4.67681C3.80148 4.67681 4.71375 5.57351 4.71375 6.68057C4.71375 7.78762 3.80217 8.68432 2.67757 8.68432ZM10.3949 8.68432C9.27102 8.68432 8.35943 7.78694 8.35943 6.68057C8.35943 5.57419 9.27102 4.67681 10.3949 4.67681C11.5188 4.67681 12.4304 5.57351 12.4304 6.68057C12.4304 7.78762 11.5195 8.68432 10.3949 8.68432Z" fill="var(--fill-0, #FEFDF9)"/>
</g>
</svg>
