<svg preserveAspectRatio="none" width="100%" height="100%" overflow="visible" style="display: block;" viewBox="0 0 59.8066 58.9642" fill="none" xmlns="http://www.w3.org/2000/svg">
<g id="Layer 1">
<path id="Vector" d="M29.9033 0C13.3882 0 0 13.2007 0 29.4844C0 45.768 13.3882 58.9642 29.9033 58.9642C46.4183 58.9642 59.8066 45.768 59.8066 29.4844C59.8066 13.2007 46.4183 0 29.9033 0ZM42.1823 52.3436C40.2286 53.3653 37.8139 52.3526 37.1794 50.2643L37.0288 49.7737C35.4129 44.4538 34.4132 38.9719 34.048 33.436C42.5109 33.0805 48.8376 31.6672 48.8376 29.9749C48.8376 29.9749 50.3348 10.1807 29.9078 10.1807C9.48086 10.1807 10.9781 29.9749 10.9781 29.9749C10.9781 31.6672 17.3002 33.0805 25.7631 33.436C25.3979 38.9719 24.3937 44.4538 22.7778 49.7737L22.6272 50.2688C21.9972 52.3436 19.6008 53.3788 17.6562 52.3616C9.01983 47.8519 3.2318 38.7379 3.67914 28.3592C4.24973 15.064 15.1685 4.2487 28.6434 3.6231C43.6886 2.92998 56.1548 14.7939 56.1548 29.4799C56.1548 39.377 50.49 47.9914 42.1823 52.3391V52.3436Z" fill="#BFA98F"/>
</g>
</svg>
