<svg preserveAspectRatio="none" width="100%" height="100%" overflow="visible" style="display: block;" viewBox="0 0 10.5313 10.9396" fill="none" xmlns="http://www.w3.org/2000/svg">
<path id="Vector" d="M5.73756 0.191825C5.59944 0.0527459 5.41016 -0.0142181 5.22344 0.00252285C5.21576 0.00252285 5.20937 0.00381068 5.2017 0.00509844C5.05078 0.0179761 4.90499 0.0823645 4.795 0.191825L0.187042 4.83165C-0.0623475 5.08276 -0.0623475 5.49098 0.187042 5.7421C0.436432 5.99321 0.84185 5.99321 1.09124 5.7421L4.20286 2.60896C4.35889 2.45185 4.62618 2.5626 4.62618 2.78539V10.2684C4.62618 10.6045 4.87046 10.9045 5.20298 10.9367C5.58409 10.9728 5.9051 10.6727 5.9051 10.2954V2.7841C5.9051 2.56131 6.1724 2.45057 6.32843 2.60767L9.44004 5.74081C9.68943 5.99192 10.0949 5.99192 10.3442 5.74081C10.5936 5.4897 10.5936 5.08147 10.3442 4.83036L5.73629 0.190537L5.73756 0.191825Z" fill="#000000"/>
</svg>
