<svg preserveAspectRatio="none" width="100%" height="100%" overflow="visible" style="display: block;" viewBox="0 0 11.7018 12.1555" fill="none" xmlns="http://www.w3.org/2000/svg">
<path id="Vector" d="M6.37526 0.213145C6.22179 0.0586083 6.01147 -0.0157984 5.80399 0.00280325C5.79547 0.00280325 5.78836 0.00423421 5.77983 0.00566511C5.61215 0.019974 5.45015 0.0915188 5.32793 0.213145L0.207831 5.36866C-0.069277 5.64768 -0.069277 6.10127 0.207831 6.3803C0.484939 6.65932 0.935417 6.65932 1.21252 6.3803L4.66998 2.89893C4.84335 2.72436 5.14035 2.84742 5.14035 3.09497V11.4096C5.14035 11.7831 5.41178 12.1165 5.78125 12.1522C6.20473 12.1923 6.56142 11.8589 6.56142 11.4397V3.09353C6.56142 2.84599 6.85842 2.72293 7.03179 2.8975L10.4892 6.37887C10.7664 6.65789 11.2168 6.65789 11.4939 6.37887C11.771 6.09984 11.771 5.64625 11.4939 5.36722L6.37384 0.211714L6.37526 0.213145Z" fill="var(--fill-0, #252024)"/>
</svg>
