<svg preserveAspectRatio="none" width="100%" height="100%" overflow="visible" style="display: block;" viewBox="0 0 15 15.6882" fill="none" xmlns="http://www.w3.org/2000/svg">
<path id="Vector" d="M14.2307 7.10592H8.78635C8.48339 7.10592 8.23819 6.86072 8.23819 6.55776V0.769324C8.23819 0.364942 7.92624 0.0131945 7.52314 0.000356977C7.12004 -0.0124805 6.76188 0.322578 6.76188 0.738514V6.55776C6.76188 6.86072 6.51668 7.10592 6.21371 7.10592H0.769324C0.364942 7.10592 0.0131945 7.41787 0.000356977 7.82097C-0.0124805 8.22407 0.322579 8.58224 0.738514 8.58224H6.21371C6.51668 8.58224 6.76188 8.82743 6.76188 9.1304V14.9188C6.76188 15.3232 7.07383 15.675 7.47693 15.6878C7.88002 15.7006 8.23819 15.3656 8.23819 14.9496V9.1304C8.23819 8.82743 8.48339 8.58224 8.78635 8.58224H14.2616C14.6762 8.58224 15.0113 8.23947 14.9997 7.82097C14.9882 7.40247 14.6351 7.10592 14.2307 7.10592Z" fill="#0D0C0D"/>
</svg>
