<svg preserveAspectRatio="none" width="100%" height="100%" overflow="visible" style="display: block;" viewBox="0 0 82.7815 82.7879" fill="none" xmlns="http://www.w3.org/2000/svg">
<g id="Layer 2">
<path id="Vector" d="M42.7492 0.0214288C18.8201 -0.738626 -0.738626 18.8201 0.0214288 42.7492C0.711812 64.4234 18.3641 82.0694 40.032 82.7661C63.9611 83.5325 83.5261 63.9737 82.7598 40.0383C82.0694 18.3641 64.4171 0.718146 42.7492 0.0214288ZM5.06946 41.3938C5.06946 20.5112 22.7914 3.68236 43.9843 5.15813C62.8336 6.46923 77.0657 22.367 77.7181 41.2481C77.7814 43.0722 75.2669 44.13 74.2218 42.5845C67.0329 31.9374 58.5267 27.2314 54.454 25.4706C52.9276 24.8119 51.8128 23.4628 51.4645 21.835L49.976 12.8537C49.7924 11.9796 48.6396 11.7769 48.1646 12.5433L44.1236 21.17C43.7119 21.8287 42.7429 21.8097 42.3628 21.132L38.7462 12.6067C38.3092 11.8213 37.1438 11.9733 36.9221 12.841L35.3197 21.17C34.9776 22.5254 34.0339 23.6465 32.7671 24.2355L13.5377 33.0522C12.8157 33.3878 12.3533 34.1099 12.3533 34.9016V39.804C12.3533 41.0264 13.3477 42.0208 14.5701 42.0208H35.1993C37.3211 42.0208 39.2466 42.8822 40.6464 44.282C42.0335 45.6691 42.8949 47.5945 42.8949 49.7227C42.8949 52.4526 42.0905 54.6314 40.5514 56.0312C37.7138 58.628 28.1625 62.0989 25.5783 71.1309C25.1919 72.4863 23.6148 73.0944 22.4177 72.3533C12.0176 65.9562 5.06946 54.4667 5.06946 41.3874V41.3938ZM38.4169 29.6129C38.4169 30.962 37.3148 32.0578 35.9594 32.0578C34.4076 32.0578 33.1978 30.6136 33.5842 29.0049C33.7932 28.1245 34.5153 27.4151 35.4083 27.2187C37.0044 26.864 38.4169 28.0738 38.4169 29.6129Z" fill="var(--fill-0, #9B856B)"/>
</g>
</svg>
