<svg preserveAspectRatio="none" width="100%" height="100%" overflow="visible" style="display: block;" viewBox="0 0 59.6688 58.8284" fill="none" xmlns="http://www.w3.org/2000/svg">
<g id="Layer 2">
<path id="Vector" d="M30.8135 0.0152271C13.5655 -0.524862 -0.532401 13.3734 0.0154458 30.3772C0.513073 45.7788 13.2368 58.3178 28.855 58.8129C46.103 59.3575 60.2055 45.4592 59.6531 28.4509C59.1555 13.0494 46.4317 0.510309 30.8135 0.0152271ZM3.65406 29.4141C3.65406 14.5751 16.428 2.61666 31.7038 3.66533C45.2904 4.59698 55.5488 15.8938 56.019 29.3106C56.0647 30.6068 54.2522 31.3584 53.4989 30.2602C48.3172 22.6945 42.1859 19.3504 39.2504 18.0992C38.1501 17.6311 37.3466 16.6725 37.0955 15.5158L36.0226 9.13373C35.8902 8.51263 35.0593 8.3686 34.7169 8.91319L31.8042 15.0432C31.5075 15.5113 30.809 15.4978 30.535 15.0162L27.9282 8.9582C27.6132 8.40011 26.7732 8.50813 26.6134 9.12473L25.4583 15.0432C25.2118 16.0064 24.5316 16.803 23.6185 17.2216L9.75798 23.4866C9.23753 23.7251 8.90425 24.2382 8.90425 24.8008V28.2844C8.90425 29.153 9.62102 29.8596 10.5021 29.8596H25.3716C26.901 29.8596 28.2889 30.4717 29.2978 31.4664C30.2976 32.4521 30.9185 33.8203 30.9185 35.3325C30.9185 37.2724 30.3387 38.8206 29.2293 39.8153C27.1841 41.6606 20.2995 44.127 18.4368 50.5451C18.1583 51.5082 17.0215 51.9403 16.1587 51.4137C8.66229 46.868 3.65406 38.7036 3.65406 29.4096V29.4141ZM27.6908 21.0427C27.6908 22.0014 26.8964 22.78 25.9194 22.78C24.8009 22.78 23.9289 21.7538 24.2074 20.6106C24.3581 19.985 24.8785 19.4809 25.5223 19.3414C26.6727 19.0894 27.6908 19.949 27.6908 21.0427Z" fill="#AC9479"/>
</g>
</svg>
