<svg preserveAspectRatio="none" width="100%" height="100%" overflow="visible" style="display: block;" viewBox="0 0 82.979 82.979" fill="none" xmlns="http://www.w3.org/2000/svg">
<g id="Group">
<path id="Vector" d="M41.4863 5.06703C58.6953 5.06703 73.7 17.2723 77.1646 34.1011C77.6586 36.4953 77.912 38.9845 77.912 41.4863C77.912 43.9882 77.6586 46.4774 77.1583 48.8842C73.6937 65.7068 58.6889 77.912 41.4863 77.912C21.4019 77.912 5.06703 61.5708 5.06703 41.4863C5.06703 21.4019 21.4019 5.06703 41.4863 5.06703ZM41.4863 0C18.5707 0 0 18.5707 0 41.4863C0 64.402 18.5707 82.979 41.4863 82.979C61.5201 82.979 78.235 68.785 82.124 49.9039C82.6877 47.1868 82.979 44.3682 82.979 41.4863C82.979 38.6045 82.6877 35.7859 82.124 33.0687C78.235 14.1877 61.5201 0 41.4863 0Z" fill="var(--fill-0, #9B856B)"/>
<path id="Vector_2" d="M63.1986 42.1641C62.5779 41.917 62.5779 41.0556 63.1986 40.8086C64.7377 40.1879 66.1565 39.1745 67.2902 37.8191C69.374 35.3299 70.0517 32.125 69.3994 29.1798C67.8539 29.1164 66.3085 29.4078 64.8897 30.0412C63.5343 30.6429 62.2865 31.555 61.2668 32.771C60.38 33.8351 59.7467 35.0322 59.3666 36.28C58.9739 37.5721 57.3905 38.0408 56.3771 37.1414C50.854 32.2453 43.5828 29.2685 35.6212 29.2685C26.1269 29.2685 17.6143 33.4931 11.8822 40.1689C11.2298 40.929 11.2298 42.05 11.8822 42.8101C17.6206 49.4859 26.1269 53.7169 35.6212 53.7169C43.5828 53.7169 50.854 50.74 56.3771 45.844C57.3905 44.9509 58.9676 45.4133 59.3603 46.7054C59.7403 47.9531 60.3737 49.1439 61.2604 50.208C62.2802 51.4241 63.5279 52.3425 64.8834 52.9442C66.3021 53.5775 67.8476 53.8689 69.393 53.8056C70.0454 50.8603 69.3677 47.6554 67.2839 45.1663C66.1438 43.8108 64.7314 42.7911 63.1922 42.1704L63.1986 42.1641ZM22.5166 42.031C20.8635 42.031 19.5271 40.6946 19.5271 39.0415C19.5271 37.3884 20.8635 36.0519 22.5166 36.0519C24.1698 36.0519 25.5062 37.3884 25.5062 39.0415C25.5062 40.6946 24.1698 42.031 22.5166 42.031Z" fill="var(--fill-0, #9B856B)"/>
</g>
</svg>
