<svg preserveAspectRatio="none" width="100%" height="100%" overflow="visible" style="display: block;" viewBox="0 0 19.4872 25.1282" fill="none" xmlns="http://www.w3.org/2000/svg">
<path id="Vector" d="M10.6168 0.354954C10.3613 0.0976014 10.011 -0.0263093 9.66549 0.00466831C9.65129 0.00466831 9.63946 0.00705131 9.62526 0.0094342C9.34601 0.0332631 9.07623 0.152408 8.87271 0.354954L0.346105 8.94052C-0.115368 9.40518 -0.115368 10.1606 0.346105 10.6252C0.807578 11.0899 1.55777 11.0899 2.01924 10.6252L7.777 4.82765C8.06572 4.53693 8.56033 4.74186 8.56033 5.1541V23.886C8.56033 24.508 9.01233 25.0632 9.62763 25.1228C10.3329 25.1895 10.9269 24.6343 10.9269 23.9361V5.15172C10.9269 4.73948 11.4215 4.53455 11.7102 4.82526L17.4679 10.6228C17.9294 11.0875 18.6796 11.0875 19.1411 10.6228C19.6025 10.1582 19.6025 9.4028 19.1411 8.93814L10.6145 0.352571L10.6168 0.354954Z" fill="var(--fill-0, #FEFDF9)"/>
</svg>
