<svg preserveAspectRatio="none" width="100%" height="100%" overflow="visible" style="display: block;" viewBox="0 0 10.0053 7.67168" fill="none" xmlns="http://www.w3.org/2000/svg">
<path id="Vector" d="M10.0053 0.451126C10.0053 0.185738 9.77695 -0.0254897 9.50614 0.00249347C9.27325 0.0268659 9.10355 0.236288 9.10264 0.470083C9.09271 2.72227 7.25666 4.55111 5.00266 4.55111C2.74867 4.55111 0.912611 2.72227 0.902682 0.470083C0.901779 0.235385 0.732075 0.0259632 0.499183 0.00249347C0.228379 -0.0254897 0 0.186641 0 0.451126C0 2.92447 1.80446 4.98349 4.16588 5.38248C4.38884 5.42039 4.55132 5.61266 4.55132 5.83923V6.30502C4.55132 6.56138 4.3437 6.769 4.08734 6.769H2.28198C2.04638 6.769 1.83605 6.94141 1.81349 7.17611C1.78821 7.44511 1.99854 7.67168 2.26302 7.67168H7.70258C7.93818 7.67168 8.14851 7.49927 8.17108 7.26457C8.19635 6.99557 7.98603 6.769 7.72154 6.769H5.91708C5.66072 6.769 5.4531 6.56138 5.4531 6.30502V5.83923C5.4531 5.61356 5.61649 5.42039 5.83855 5.38248C8.19996 4.98259 10.0044 2.92447 10.0044 0.451126H10.0053Z" fill="#0D0C0D"/>
</svg>
