<svg preserveAspectRatio="none" width="100%" height="100%" overflow="visible" style="display: block;" viewBox="0 0 7.79487 10.0513" fill="none" xmlns="http://www.w3.org/2000/svg">
<path id="Vector" d="M4.24673 0.141982C4.1445 0.0390406 4.0044 -0.0105237 3.8662 0.00186732C3.86052 0.00186732 3.85578 0.00282052 3.8501 0.00377368C3.7384 0.0133053 3.63049 0.0609632 3.54908 0.141982L0.138442 3.57621C-0.0461473 3.76207 -0.0461473 4.06422 0.138442 4.25009C0.323031 4.43596 0.623107 4.43596 0.807696 4.25009L3.1108 1.93106C3.22629 1.81477 3.42413 1.89674 3.42413 2.06164V9.55441C3.42413 9.80319 3.60493 10.0253 3.85105 10.0491C4.13314 10.0758 4.37074 9.8537 4.37074 9.57443V2.06069C4.37074 1.89579 4.56858 1.81382 4.68407 1.9301L6.98717 4.24914C7.17176 4.435 7.47184 4.435 7.65643 4.24914C7.84102 4.06327 7.84102 3.76112 7.65643 3.57525L4.24579 0.141028L4.24673 0.141982Z" fill="var(--fill-0, #9B856B)"/>
</svg>
