<svg preserveAspectRatio="none" width="100%" height="100%" overflow="visible" style="display: block;" viewBox="0 0 40 40" fill="none" xmlns="http://www.w3.org/2000/svg">
<path id="Ellipse 18" fill-rule="evenodd" clip-rule="evenodd" d="M20 40C31.0457 40 40 31.0459 40 20C40 8.9541 31.0457 0 20 0C8.95435 0 0 8.9541 0 20C0 31.0459 8.95435 40 20 40ZM29.7941 13.3774C30.2972 12.874 31.1129 12.874 31.616 13.3774C32.1191 13.8804 32.1191 14.6963 31.616 15.1992L16.955 29.8604L9.37732 22.2827C8.87427 21.7793 8.87427 20.9639 9.37732 20.4604C9.88049 19.9575 10.6962 19.9575 11.1993 20.4604L16.955 26.2163L29.7941 13.3774Z" fill="var(--fill-0, #67765B)"/>
</svg>
