<svg preserveAspectRatio="none" width="100%" height="100%" overflow="visible" style="display: block;" viewBox="0 0 82.9819 82.9756" fill="none" xmlns="http://www.w3.org/2000/svg">
<g id="Layer 1">
<path id="Vector" d="M45.2722 0.169313C19.424 -2.13619 -2.13619 19.424 0.169313 45.2722C1.93644 65.0844 17.8913 81.0392 37.7034 82.8063C63.5516 85.1118 85.1181 63.5452 82.8126 37.697C81.0455 17.8913 65.0907 1.93011 45.2722 0.169313ZM4.64097 41.491C4.64097 23.4777 17.6316 8.44758 34.7328 5.26802C37.1207 4.82465 39.3185 6.69945 39.3185 9.1253V18.2966C39.3185 18.6133 38.9195 18.7463 38.7294 18.493C36.2149 15.1361 32.212 12.9572 27.696 12.9572C27.696 12.9572 27.696 12.9572 27.6896 12.9572C27.1893 12.9572 26.7966 13.3943 26.8282 13.901C27.1893 19.2277 30.5715 23.7247 35.2712 25.6945L35.3092 25.7072C37.735 26.7142 39.3185 29.0894 39.3185 31.7179V34.8785C39.3185 35.3662 38.6788 35.5372 38.4254 35.1192C34.6695 28.8867 27.8417 24.7128 20.0321 24.7128C19.8547 24.7128 19.6837 24.7128 19.5127 24.7128C19.0313 24.7254 18.6323 25.1245 18.6513 25.6058C18.9997 34.1311 24.3327 41.3706 31.8129 44.5059C32.6933 44.8732 33.6117 45.1836 34.5491 45.4306C37.3297 46.159 39.3185 48.6038 39.3185 51.4794V57.0531C39.3185 57.5471 38.6471 57.7181 38.4191 57.2811C33.8271 48.4138 24.5671 42.346 13.8946 42.346C13.5716 42.346 13.2549 42.346 12.9382 42.365C12.4695 42.384 12.0958 42.7894 12.1148 43.2581C12.4695 54.3359 19.3607 63.7606 29.0514 67.8205C30.7932 68.5489 33.7321 69.119 36.0186 69.48C37.9187 69.784 39.3185 71.4181 39.3185 73.3436V74.2683C39.3185 76.4852 37.3233 78.17 35.1382 77.7899C17.8343 74.7687 4.64097 59.65 4.64097 41.4973V41.491ZM47.8374 77.7836C45.6586 78.1636 43.6571 76.4788 43.6571 74.262V73.3373C43.6571 71.4118 45.0632 69.7777 46.9697 69.4737C49.2562 69.1063 52.1887 68.5426 53.9305 67.8142C63.6212 63.7543 70.5124 54.3296 70.8671 43.2518C70.8798 42.7831 70.5124 42.3777 70.0437 42.3587C69.727 42.346 69.404 42.3397 69.0873 42.3397C58.4149 42.3397 49.1549 48.4075 44.5629 57.2748C44.3348 57.7181 43.6635 57.5471 43.6635 57.0468V51.473C43.6635 48.5975 45.6459 46.1526 48.4328 45.4243C49.3702 45.1772 50.2886 44.8669 51.169 44.4995C58.6429 41.3643 63.9759 34.1248 64.3306 25.5995C64.3496 25.1181 63.9569 24.7128 63.4692 24.7064C63.2982 24.7064 63.1209 24.7064 62.9499 24.7064C55.1466 24.7064 48.3125 28.8804 44.5565 35.1128C44.3032 35.5309 43.6635 35.3662 43.6635 34.8722V31.7116C43.6635 29.0831 45.2469 26.7079 47.6728 25.7008L47.7108 25.6882C52.4104 23.7184 55.7927 19.2214 56.1537 13.8946C56.1854 13.3943 55.799 12.9509 55.2923 12.9509C55.2923 12.9509 55.286 12.9509 55.2796 12.9509C50.7636 12.9509 46.7607 15.1297 44.2462 18.4866C44.0562 18.74 43.6571 18.607 43.6571 18.2903V9.11896C43.6571 6.68679 45.855 4.81832 48.2428 5.26168C65.344 8.44125 78.3346 23.4713 78.3346 41.4846C78.3346 59.6373 65.1414 74.7624 47.8374 77.7773V77.7836Z" fill="var(--fill-0, #9B856B)"/>
</g>
</svg>
