<svg preserveAspectRatio="none" width="100%" height="100%" overflow="visible" style="display: block;" viewBox="0 0 82.9854 82.9854" fill="none" xmlns="http://www.w3.org/2000/svg">
<g id="Group">
<path id="Vector" d="M41.4927 5.06703C61.5771 5.06703 77.9183 21.4082 77.9183 41.4927C77.9183 61.5771 61.5771 77.9183 41.4927 77.9183C21.4082 77.9183 5.06703 61.5771 5.06703 41.4927C5.06703 21.4082 21.4082 5.06703 41.4927 5.06703ZM41.4927 0C18.577 0 0 18.577 0 41.4927C0 64.4083 18.577 82.9853 41.4927 82.9853C64.4083 82.9853 82.9853 64.4083 82.9853 41.4927C82.9853 18.577 64.4083 0 41.4927 0Z" fill="var(--fill-0, #9B856B)"/>
<path id="Vector_2" d="M53.8119 52.2284L67.4486 37.2554C67.9616 36.6917 68.0249 35.8429 67.5942 35.2096L64.9974 31.3839C64.3323 30.4022 62.8882 30.4212 62.2422 31.4093L51.1897 48.3902C50.778 49.0236 49.8089 48.4852 50.132 47.8011L59.1893 28.3627C59.6707 27.3303 59.3603 26.0952 58.4419 25.4175L54.724 22.675C53.3622 21.6679 51.4114 22.352 50.9807 23.9924L44.6786 47.8835C44.4886 48.6119 43.4055 48.4092 43.4878 47.6618L46.224 21.8959C46.3824 20.4265 45.2296 19.1471 43.7475 19.1471H39.2632C37.7874 19.1471 36.6347 20.4265 36.7867 21.8959L39.5229 47.6618C39.6052 48.4092 38.5221 48.6055 38.3321 47.8835L31.8716 23.3907C31.5169 22.0416 29.9082 21.4779 28.7871 22.3013L24.5688 25.4112C23.6504 26.0889 23.34 27.3176 23.8214 28.3564L32.8787 47.7948C33.1954 48.4788 32.2327 49.0172 31.821 48.3838L20.7685 31.4029C20.1225 30.4085 18.6784 30.3959 18.0133 31.3776L15.4165 35.2032C14.9858 35.8366 15.0491 36.6853 15.5621 37.249L29.1988 52.2221C29.7118 52.7858 28.9391 53.5839 28.3564 53.0962L15.6951 42.4111C14.9161 41.7587 13.7317 42.3477 13.7887 43.3611L13.985 46.9587C14.08 48.6752 15.0174 50.2333 16.4869 51.1264L37.1667 63.6863C39.8396 65.3077 43.1965 65.3077 45.8757 63.6863L66.5555 51.1264C68.0249 50.2333 68.9623 48.6752 69.0573 46.9587L69.2537 43.3611C69.3107 42.3477 68.1263 41.7587 67.3472 42.4111L54.686 53.0962C54.1033 53.5839 53.3369 52.7858 53.8436 52.2221L53.8119 52.2284Z" fill="var(--fill-0, #9B856B)"/>
</g>
</svg>
