<svg preserveAspectRatio="none" width="100%" height="100%" overflow="visible" style="display: block;" viewBox="0 0 82.979 82.9854" fill="none" xmlns="http://www.w3.org/2000/svg">
<g id="Group">
<path id="Vector" d="M66.1438 26.2852C62.9452 21.1739 58.0555 17.1329 52.4058 14.9541C44.7039 12.0532 35.6719 11.6288 28.198 15.4418C20.4898 19.3371 15.4545 27.1846 13.453 35.3932C12.2939 40.2703 11.9329 45.654 13.5733 50.5627C17.4116 62.4575 29.4521 71.0018 41.9487 70.5774C59.411 70.0771 69.4374 58.2646 65.5991 40.967C63.0846 28.7111 50.4867 19.9008 38.1801 23.8847C31.7196 25.8419 26.8426 30.7696 26.1142 37.6544C25.4935 43.9058 27.8053 50.569 32.7077 54.5466C35.3046 56.6558 38.6298 58.1505 42.1894 57.9479C48.0038 57.7135 53.3179 52.1081 52.4058 46.1987C51.8548 42.6518 49.9546 39.8206 47.3451 37.7241C46.1227 36.7867 44.7862 36.0393 43.3168 35.6212C42.3731 35.3616 41.3153 35.5706 40.5363 36.28C39.3328 37.3694 39.2442 39.2315 40.3336 40.4349C41.1063 41.2963 41.9297 42.1197 42.6264 42.9304C43.9185 44.4696 45.9643 46.7561 44.7292 48.6562C42.6898 51.7091 39.2062 50.3536 36.945 48.2002C34.5192 45.7933 33.3221 41.8157 33.6768 38.5158C33.9491 35.8493 35.4439 33.6198 37.7874 32.3087C44.2669 28.5907 51.8041 30.9786 55.9021 37.0273C59.1893 41.9107 59.81 49.9356 57.4032 54.933C53.9512 62.4385 42.8544 64.0473 35.6656 61.6911C28.0967 59.3033 20.9585 51.6901 20.4772 43.5638C20.1035 35.0449 23.7834 25.6202 31.2699 21.0345C38.6995 16.5375 50.075 17.4179 57.3082 21.9846C59.7847 23.53 62.0268 25.5695 63.832 27.9004C64.9594 29.4141 66.0615 30.8519 67.5372 32.0933C67.6322 32.182 67.7969 32.1313 67.8159 31.9983C68.0693 29.9208 67.2395 27.9764 66.1438 26.2852ZM43.0445 39.9916C42.3161 39.9916 41.7334 39.4025 41.7334 38.6805C41.7334 37.9584 42.3161 37.3694 43.0445 37.3694C43.7728 37.3694 44.3555 37.9521 44.3555 38.6805C44.3555 39.4089 43.7665 39.9916 43.0445 39.9916Z" fill="var(--fill-0, #9B856B)"/>
<path id="Vector_2" d="M41.4863 0C18.5707 0 0 18.577 0 41.4927C0 64.4083 18.5707 82.9853 41.4863 82.9853C64.402 82.9853 82.979 64.4083 82.979 41.4927C82.979 18.577 64.402 0 41.4863 0ZM48.5739 77.1013C48.2065 77.2596 47.8201 77.3673 47.4148 77.4369C44.8432 77.8613 42.1767 78.0133 39.4532 77.8613C36.489 77.703 33.5754 77.1203 30.7759 76.1829C30.7442 76.1829 30.7126 76.1639 30.6809 76.1512C19.7298 72.4396 10.5204 63.2429 6.82149 52.2855C6.82149 52.2728 6.82149 52.2665 6.80883 52.2538C5.90943 49.5873 5.33939 46.8194 5.14937 43.9945C3.68627 22.1746 21.5539 4.05996 43.2851 5.11137C61.2731 5.9791 75.9612 20.1605 77.741 38.0788C77.7536 38.1674 77.76 38.2561 77.7663 38.3448C77.8043 38.7565 77.798 39.1618 77.741 39.5545C77.7726 40.1942 77.7916 40.8403 77.7916 41.4927C77.7916 59.1133 65.2317 73.8077 48.5739 77.1013Z" fill="var(--fill-0, #9B856B)"/>
</g>
</svg>
